<svg preserveAspectRatio="none" width="100%" height="100%" overflow="visible" style="display: block;" viewBox="0 0 32 32" fill="none" xmlns="http://www.w3.org/2000/svg">
<g id="Frame 12383">
<path id="Union" fill-rule="evenodd" clip-rule="evenodd" d="M13.855 9.84213C13.2513 9.84213 12.7507 10.297 12.7507 10.8883C12.7507 11.4796 13.2523 11.9345 13.855 11.9345C14.4565 11.9345 14.9593 11.4796 14.9593 10.8883C15.0087 10.3428 14.5081 9.84213 13.855 9.84213ZM12.7507 16.0226C12.7507 15.4313 13.2513 14.9764 13.855 14.9764C14.5081 14.9764 15.0087 15.4313 14.9593 16.0226C14.9593 16.6138 14.4565 17.0687 13.855 17.0687C13.2523 17.0687 12.7507 16.6138 12.7507 16.0226ZM12.7507 21.1118C12.7507 20.5195 13.2523 20.0646 13.855 20.0646C14.5081 20.0646 15.0087 20.5653 14.9593 21.1118C14.9593 21.703 14.4565 22.1579 13.855 22.1579C13.2523 22.1579 12.7507 21.703 12.7507 21.1118ZM17.0407 21.1107C17.0407 20.5195 17.5435 20.0646 18.145 20.0646C18.7477 20.0646 19.2493 20.5653 19.2493 21.1107C19.2493 21.702 18.7477 22.1569 18.145 22.1569C17.5435 22.1569 17.0407 21.702 17.0407 21.1107ZM18.145 14.9764C17.5435 14.9764 17.0407 15.4313 17.0407 16.0226C17.0407 16.6138 17.5435 17.0687 18.145 17.0687C18.7477 17.0687 19.2493 16.6138 19.2493 16.0226C19.2493 15.4313 18.7477 14.9764 18.145 14.9764ZM17.0407 10.8883C17.0407 10.297 17.5435 9.84213 18.145 9.84213C18.7477 9.84213 19.2493 10.3428 19.2493 10.8883C19.2493 11.4796 18.7477 11.9345 18.145 11.9345C17.5435 11.9345 17.0407 11.4796 17.0407 10.8883Z" fill="var(--fill-0, #BDBDBD)"/>
</g>
</svg>
