<svg preserveAspectRatio="none" width="100%" height="100%" overflow="visible" style="display: block;" viewBox="0 0 63.7082 66.3126" fill="none" xmlns="http://www.w3.org/2000/svg">
<g id="Group 3436">
<g id="Subtract" filter="url(#filter0_d_0_4)">
<path d="M45.2786 3.63157C45.6567 3.63159 46.0196 3.78173 46.2864 4.04954L54.4905 12.2839C54.7559 12.5505 54.9046 12.9116 54.9046 13.2878V56.699C54.9046 57.4844 54.2681 58.1208 53.4827 58.1208H49.7434V11.865C49.7433 11.4888 49.5939 11.1275 49.3284 10.8611L42.1243 3.63157H45.2786Z" fill="url(#paint0_linear_0_4)"/>
</g>
<g id="Rectangle 1" filter="url(#filter1_d_0_4)">
<path d="M6.34411 4.26667C6.34411 3.4812 6.98086 2.84444 7.76633 2.84444H38.8886C39.2667 2.84444 39.6292 2.99499 39.8961 3.26282L48.1002 11.4966C48.3658 11.7632 48.5149 12.1242 48.5149 12.5005V55.9119C48.5149 56.6974 47.8782 57.3342 47.0927 57.3342H7.76634C6.98087 57.3342 6.34411 56.6974 6.34411 55.9119V4.26667Z" fill="url(#paint1_linear_0_4)"/>
</g>
<rect id="Rectangle 10" x="10.7948" y="22.3431" width="32.8744" height="2.13333" rx="1.06667" fill="var(--fill-0, white)"/>
<path id="&#231;&#159;&#169;&#229;&#189;&#162;" d="M2.76438e-06 23.7993C1.23765e-06 22.2283 1.2735 20.9548 2.84445 20.9548H32.3411C33.4637 20.9548 34.4813 21.6151 34.9387 22.6404L36.6317 26.4351H60.8637C62.4347 26.4351 63.7082 27.7086 63.7082 29.2796L63.7082 63.4682C63.7082 65.0391 62.4347 66.3126 60.8637 66.3126H2.84448C1.27354 66.3126 4.28433e-05 65.0391 4.13166e-05 63.4682L2.76438e-06 23.7993Z" fill="url(#paint2_linear_0_4)"/>
<path id="&#231;&#159;&#169;&#229;&#189;&#162;_2" d="M2.85547 21.4042L32.5215 21.5448C33.4302 21.5491 34.2524 22.0858 34.6221 22.9159L36.2461 26.5634C36.3318 26.7556 36.5229 26.8797 36.7334 26.8798H60.8643C62.1404 26.88 63.1747 27.9142 63.1748 29.1903V63.4423C63.1748 64.7185 62.1404 65.7536 60.8643 65.7538H2.84473C1.56834 65.7538 0.533203 64.7187 0.533203 63.4423V23.7157C0.533203 22.4351 1.57481 21.3981 2.85547 21.4042Z" stroke="url(#paint3_linear_0_4)" stroke-width="1.06667" stroke-linejoin="round"/>
<rect id="Rectangle 12" x="10.7948" y="9.41265" width="23.7022" height="2.13333" rx="1.06667" fill="var(--fill-0, white)"/>
<rect id="Rectangle 13" x="10.7948" y="15.8779" width="32.8744" height="2.13333" rx="1.06667" fill="var(--fill-0, white)"/>
<path id="Union" opacity="0.3" fill-rule="evenodd" clip-rule="evenodd" d="M49.7649 43.9799L44.6246 50.8521L47.9843 50.141C47.9843 50.141 48.1671 51.6881 47.9843 54.1498C47.8014 56.6116 46.2036 60.7385 46.2036 60.7385H49.7649V50.8521V43.9799ZM49.7649 43.9799L54.9051 50.8521L51.5455 50.141C51.5455 50.141 51.3627 51.6881 51.5455 54.1498C51.7283 56.6116 53.3262 60.7385 53.3262 60.7385H49.7649V50.8521V43.9799Z" fill="url(#paint4_linear_0_4)"/>
</g>
<defs>
<filter id="filter0_d_0_4" x="39.2799" y="0.787127" width="18.4692" height="60.1781" filterUnits="userSpaceOnUse" color-interpolation-filters="sRGB">
<feFlood flood-opacity="0" result="BackgroundImageFix"/>
<feColorMatrix in="SourceAlpha" type="matrix" values="0 0 0 0 0 0 0 0 0 0 0 0 0 0 0 0 0 0 127 0" result="hardAlpha"/>
<feOffset/>
<feGaussianBlur stdDeviation="1.42222"/>
<feColorMatrix type="matrix" values="0 0 0 0 1 0 0 0 0 1 0 0 0 0 1 0 0 0 0.585118 0"/>
<feBlend mode="normal" in2="BackgroundImageFix" result="effect1_dropShadow_0_4"/>
<feBlend mode="normal" in="SourceGraphic" in2="effect1_dropShadow_0_4" result="shape"/>
</filter>
<filter id="filter1_d_0_4" x="3.49967" y="0" width="47.8597" height="60.1786" filterUnits="userSpaceOnUse" color-interpolation-filters="sRGB">
<feFlood flood-opacity="0" result="BackgroundImageFix"/>
<feColorMatrix in="SourceAlpha" type="matrix" values="0 0 0 0 0 0 0 0 0 0 0 0 0 0 0 0 0 0 127 0" result="hardAlpha"/>
<feOffset/>
<feGaussianBlur stdDeviation="1.42222"/>
<feColorMatrix type="matrix" values="0 0 0 0 1 0 0 0 0 1 0 0 0 0 1 0 0 0 0.585118 0"/>
<feBlend mode="normal" in2="BackgroundImageFix" result="effect1_dropShadow_0_4"/>
<feBlend mode="normal" in="SourceGraphic" in2="effect1_dropShadow_0_4" result="shape"/>
</filter>
<linearGradient id="paint0_linear_0_4" x1="48.5144" y1="3.63157" x2="48.5144" y2="58.1208" gradientUnits="userSpaceOnUse">
<stop stop-color="#F1F7FF"/>
<stop offset="1" stop-color="#C1C8D8"/>
</linearGradient>
<linearGradient id="paint1_linear_0_4" x1="27.4295" y1="2.84444" x2="27.4295" y2="57.3342" gradientUnits="userSpaceOnUse">
<stop stop-color="#F1F7FF"/>
<stop offset="1" stop-color="#C1C8D8"/>
</linearGradient>
<linearGradient id="paint2_linear_0_4" x1="-1.53575e-07" y1="43.6337" x2="63.1389" y2="49.6291" gradientUnits="userSpaceOnUse">
<stop stop-color="#7231F3"/>
<stop offset="1" stop-color="#3F25F8"/>
</linearGradient>
<linearGradient id="paint3_linear_0_4" x1="101.557" y1="47.3683" x2="67.6274" y2="-16.6502" gradientUnits="userSpaceOnUse">
<stop stop-color="#BAD7FF" stop-opacity="0.01"/>
<stop offset="1" stop-color="white" stop-opacity="0.270924"/>
<stop offset="1" stop-color="white"/>
</linearGradient>
<linearGradient id="paint4_linear_0_4" x1="49.7649" y1="43.9799" x2="49.7649" y2="60.7385" gradientUnits="userSpaceOnUse">
<stop stop-color="white"/>
<stop offset="1" stop-color="white" stop-opacity="0"/>
</linearGradient>
</defs>
</svg>
