<svg viewBox="0 0 24.6667 26.6667" fill="none" xmlns="http://www.w3.org/2000/svg">
<path id="&#232;&#183;&#175;&#229;&#190;&#132;" d="M15.7333 18.4667C15.6333 17.4333 15.6667 16.6667 15.6667 15.7C16.1333 15.4333 17.8 13.8333 17.9333 12.5C18.3 12.4667 18.9 12.1 19.0667 10.6333C19.1667 9.86667 18.8 9.4 18.5667 9.26667C19.1667 7.43333 19.4333 1.7 15.2333 1.13333C14.8 0.4 13.7 0 12.2667 0C6.53333 0.1 4.83333 4.4 6.1 9.3C5.86667 9.43333 5.5 9.86667 5.6 10.6667C5.76667 12.1333 6.36667 12.5 6.73333 12.5333C6.86667 13.9 8.53333 15.5 9 15.7333C9 16.7 9.03333 17.4333 8.93333 18.5C7.8 21.5667 0.366667 19.9667 0 26.6667H24.6667C24.4667 19.8667 16.8667 21.5667 15.7333 18.4667Z" fill="var(--fill-0, white)"/>
</svg>
