<svg viewBox="0 0 20 20" fill="none" xmlns="http://www.w3.org/2000/svg">
<g id="Group">
<g id="Vector">
</g>
<path id="Vector_2" d="M4.54583 12.5L0.833333 15.4167V2.5C0.833333 2.27899 0.921131 2.06702 1.07741 1.91074C1.23369 1.75446 1.44565 1.66667 1.66667 1.66667H14.1667C14.3877 1.66667 14.5996 1.75446 14.7559 1.91074C14.9122 2.06702 15 2.27899 15 2.5V12.5H4.54583ZM3.96917 10.8333H13.3333V3.33333H2.5V11.9875L3.96917 10.8333ZM6.66667 14.1667H15.1975L16.6667 15.3208V6.66667H17.5C17.721 6.66667 17.933 6.75446 18.0893 6.91074C18.2455 7.06702 18.3333 7.27899 18.3333 7.5V18.75L14.6208 15.8333H7.5C7.27899 15.8333 7.06702 15.7455 6.91074 15.5893C6.75446 15.433 6.66667 15.221 6.66667 15V14.1667Z" fill="var(--fill-0, #262626)"/>
</g>
</svg>
