<svg viewBox="0 0 20 20" fill="none" xmlns="http://www.w3.org/2000/svg">
<g id="Group">
<g id="Vector">
</g>
<path id="Vector_2" d="M18.3333 14.1683C18.333 15.308 17.9434 16.4133 17.2292 17.3013C16.515 18.1894 15.5189 18.8069 14.4058 19.0517L13.8742 17.4567C14.361 17.3765 14.824 17.1893 15.2298 16.9086C15.6356 16.6279 15.9741 16.2606 16.2208 15.8333H14.1667C13.7246 15.8333 13.3007 15.6577 12.9882 15.3452C12.6756 15.0326 12.5 14.6087 12.5 14.1667V10.8333C12.5 10.3913 12.6756 9.96738 12.9882 9.65482C13.3007 9.34226 13.7246 9.16667 14.1667 9.16667H16.615C16.4116 7.55575 15.6274 6.07439 14.4095 5.00056C13.1916 3.92673 11.6237 3.33423 10 3.33423C8.37629 3.33423 6.80839 3.92673 5.59048 5.00056C4.37257 6.07439 3.58836 7.55575 3.385 9.16667H5.83333C6.27536 9.16667 6.69928 9.34226 7.01184 9.65482C7.3244 9.96738 7.5 10.3913 7.5 10.8333V14.1667C7.5 14.6087 7.3244 15.0326 7.01184 15.3452C6.69928 15.6577 6.27536 15.8333 5.83333 15.8333H3.33333C2.89131 15.8333 2.46738 15.6577 2.15482 15.3452C1.84226 15.0326 1.66667 14.6087 1.66667 14.1667V10C1.66667 5.3975 5.3975 1.66667 10 1.66667C14.6025 1.66667 18.3333 5.3975 18.3333 10V14.1683ZM16.6667 14.1667V10.8333H14.1667V14.1667H16.6667ZM3.33333 10.8333V14.1667H5.83333V10.8333H3.33333Z" fill="var(--fill-0, #262626)"/>
</g>
</svg>
