<svg viewBox="0 0 14 14" fill="none" xmlns="http://www.w3.org/2000/svg">
<g id="&#230;&#142;&#146;&#229;&#186;&#143;">
<rect id="&#231;&#159;&#169;&#229;&#189;&#162;" opacity="0.01" width="14" height="14" fill="var(--fill-0, #221D39)"/>
<path id="&#229;&#189;&#162;&#231;&#138;&#182;" d="M8.65254 1.07066C8.88958 0.993324 9.15239 1.06736 9.30683 1.25523L11.8762 4.36558C12.0766 4.61238 12.0289 4.96764 11.7697 5.15855C11.5105 5.34944 11.1372 5.30382 10.9367 5.05699L9.43183 3.21324V12.4769C9.41931 12.657 9.3162 12.8226 9.15156 12.9183C8.96359 13.0274 8.72726 13.0273 8.53925 12.9183C8.35109 12.809 8.24292 12.6081 8.25898 12.3988V1.60093C8.26019 1.36288 8.41719 1.15094 8.65254 1.07066ZM4.8498 1.08238C5.03794 0.973133 5.27399 0.973073 5.46211 1.08238C5.62664 1.17799 5.72977 1.34286 5.74238 1.52281V12.3988C5.74307 12.6375 5.58454 12.8503 5.34785 12.9291C5.28658 12.9493 5.22226 12.9599 5.15742 12.9593C4.9775 12.9594 4.80773 12.8798 4.69746 12.7445L2.12519 9.63413C2.02906 9.51768 1.98531 9.36907 2.0041 9.22202C2.02295 9.07514 2.10228 8.941 2.2248 8.84995C2.3466 8.75818 2.50218 8.71654 2.65644 8.73374C2.81082 8.75107 2.9519 8.82643 3.04804 8.94273L4.56953 10.7875V1.60093C4.55347 1.39161 4.66164 1.19171 4.8498 1.08238Z" fill="var(--fill-0, #221D39)"/>
</g>
</svg>
