<svg viewBox="0 0 62.3331 36.2017" fill="none" xmlns="http://www.w3.org/2000/svg">
<g id="Group">
<path id="Vector" fill-rule="evenodd" clip-rule="evenodd" d="M9.37448 2.21655e-07V9.01975L2.88837 2.21655e-07H2.24113e-05V14.7828H3.13589V5.54672L9.83833 14.7828H12.5103V2.21655e-07H9.37448Z" fill="var(--fill-0, #00071E)"/>
<path id="Vector_2" fill-rule="evenodd" clip-rule="evenodd" d="M42.5435 5.9579C41.6567 5.9579 40.9278 6.24829 40.3568 6.82908C39.7857 7.40987 39.5012 8.16021 39.5012 9.08207C39.5012 10.0039 39.7857 10.7543 40.3568 11.3351C40.9278 11.9158 41.6567 12.2062 42.5435 12.2062C43.4303 12.2062 44.1592 11.9158 44.7302 11.3351C45.3013 10.7543 45.5858 10.0039 45.5858 9.08207C45.5858 8.16021 45.3013 7.40987 44.7302 6.82908C44.1592 6.24829 43.4303 5.9579 42.5435 5.9579ZM42.5435 3.06176C43.6992 3.06176 44.7458 3.32097 45.6891 3.83939C45.8489 3.92709 46.0048 4.02259 46.153 4.12199L46.3927 3.32486H48.7022V8.76829C48.7061 8.87158 48.71 8.97488 48.71 9.08012C48.71 9.18536 48.708 9.28866 48.7022 9.39V14.7262H46.0126V14.1221C45.9093 14.1903 45.8002 14.2546 45.6872 14.317C44.7458 14.8393 43.6973 15.1004 42.5416 15.1004C41.3858 15.1004 40.3276 14.8393 39.3862 14.317C38.4449 13.7946 37.7062 13.0735 37.1741 12.1517C36.6421 11.2318 36.3751 10.2066 36.3751 9.08012C36.3751 7.95362 36.6421 6.91094 37.1741 5.99298C37.7062 5.07502 38.4449 4.35781 39.3862 3.83744C40.3276 3.31902 41.38 3.05981 42.5416 3.05981L42.5435 3.06176Z" fill="var(--fill-0, #00071E)"/>
<path id="Vector_3" fill-rule="evenodd" clip-rule="evenodd" d="M52.2182 3.74194H51.6511V3.32681H53.2902V3.74194H52.7211V5.42194H52.2182V3.74194Z" fill="var(--fill-0, #00071E)"/>
<path id="Vector_4" fill-rule="evenodd" clip-rule="evenodd" d="M53.6137 3.32681H54.1575L54.4888 4.23113C54.5317 4.35196 54.5648 4.48449 54.6038 4.61507H54.6174C54.6603 4.48644 54.6934 4.35391 54.7324 4.23113L55.054 3.32681H55.5997V5.42194H55.1397V4.70472C55.1397 4.49619 55.1787 4.18435 55.2041 3.97776H55.1924L55.017 4.47865L54.7363 5.24458H54.4596L54.175 4.47865L54.0055 3.97776H53.9938C54.0191 4.1824 54.0581 4.49619 54.0581 4.70472V5.42194H53.6079V3.32681H53.6137Z" fill="var(--fill-0, #00071E)"/>
<path id="Vector_5" fill-rule="evenodd" clip-rule="evenodd" d="M28.137 21.5476H33.559V30.0489H30.1288V24.3794L28.137 22.2609V21.5476Z" fill="var(--fill-0, #00071E)"/>
<path id="Vector_6" fill-rule="evenodd" clip-rule="evenodd" d="M61.1891 19.4368C61.9531 20.3002 62.3331 21.456 62.3331 22.906V30.0489H59.2499V23.401C59.2499 21.6957 58.5853 20.844 57.26 20.844C56.4687 20.844 55.8451 21.111 55.389 21.6431C54.931 22.1751 54.703 22.9021 54.703 23.8239V30.0489H51.6197V18.4253H53.7344L54.3327 19.8227C54.7731 19.3004 55.3208 18.8892 55.9776 18.591C56.6344 18.2928 57.3438 18.1427 58.1078 18.1427C59.4 18.1427 60.429 18.5735 61.191 19.4368H61.1891Z" fill="var(--fill-0, #00071E)"/>
<path id="Vector_7" fill-rule="evenodd" clip-rule="evenodd" d="M48.679 30.1853V24.1806C48.679 24.1806 48.679 24.1689 48.679 24.1631C48.679 24.0812 48.6751 24.0033 48.6712 23.9214V18.4254H46.3617L46.1337 19.2147C45.9797 19.1114 45.8218 19.01 45.6562 18.9184C44.7148 18.4 43.6663 18.1408 42.5106 18.1408C41.3548 18.1408 40.2966 18.4 39.3552 18.9184C38.4139 19.4369 37.6752 20.156 37.1432 21.074C36.6111 21.9919 36.3441 23.021 36.3441 24.1611C36.3441 25.3013 36.6111 26.3128 37.1432 27.2327C37.6752 28.1545 38.4139 28.8756 39.3552 29.398C40.2966 29.9203 41.349 30.1814 42.5106 30.1814C43.6721 30.1814 44.6369 29.9359 45.5529 29.4506V30.1814C45.5529 31.1033 45.2683 31.8536 44.6973 32.4344C44.1263 33.0152 43.3973 33.3056 42.5106 33.3056C41.6238 33.3056 40.8949 33.0133 40.3238 32.4344C40.0354 32.1401 39.8191 31.801 39.6768 31.419H36.4591C36.5838 32.07 36.8118 32.6819 37.1432 33.253C37.6752 34.1748 38.4139 34.8959 39.3552 35.4183C40.2966 35.9406 41.349 36.2017 42.5106 36.2017C43.6721 36.2017 44.7148 35.9406 45.6562 35.4183C46.5975 34.8959 47.3381 34.1748 47.8741 33.253C48.4101 32.3331 48.6771 31.3079 48.6771 30.1795L48.679 30.1853ZM42.5125 27.2872C41.6257 27.2872 40.8968 26.9968 40.3258 26.4161C39.7548 25.8353 39.4702 25.0849 39.4702 24.1631C39.4702 23.2412 39.7548 22.4909 40.3258 21.9101C40.8968 21.3293 41.6257 21.0389 42.5125 21.0389C43.3993 21.0389 44.1282 21.3293 44.6992 21.9101C45.2703 22.4909 45.5548 23.2412 45.5548 24.1631C45.5548 25.0849 45.2703 25.8353 44.6992 26.4161C44.1282 26.9968 43.3993 27.2872 42.5125 27.2872Z" fill="var(--fill-0, #00071E)"/>
<path id="Vector_8" fill-rule="evenodd" clip-rule="evenodd" d="M20.9237 15.1024C19.7622 15.1024 18.7097 14.8412 17.7684 14.3189C16.827 13.7966 16.0884 13.0755 15.5563 12.1536C15.0243 11.2337 14.7573 10.2086 14.7573 9.08206C14.7573 7.95556 15.0243 6.91287 15.5563 5.99492C16.0884 5.07696 16.827 4.35975 17.7684 3.83938C18.7097 3.32095 19.7622 3.06174 20.9237 3.06174C22.0853 3.06174 23.1261 3.32095 24.0694 3.83938C25.0107 4.3578 25.7513 5.07891 26.2873 5.99881C26.8232 6.92067 27.0922 7.94777 27.0922 9.08206C27.0922 10.2163 26.8232 11.2337 26.2873 12.1536C25.7513 13.0755 25.0126 13.7966 24.0694 14.3189C23.128 14.8412 22.0795 15.1024 20.9237 15.1024ZM18.737 11.335C19.3081 11.9158 20.037 12.2062 20.9237 12.2062C21.8105 12.2062 22.5394 11.9158 23.1105 11.335C23.6815 10.7543 23.9661 10.0039 23.9661 9.08206C23.9661 8.1602 23.6815 7.40986 23.1105 6.82907C22.5394 6.24828 21.8105 5.95789 20.9237 5.95789C20.037 5.95789 19.3081 6.24828 18.737 6.82907C18.166 7.40986 17.8814 8.1602 17.8814 9.08206C17.8814 10.0039 18.166 10.7543 18.737 11.335Z" fill="var(--fill-0, #00071E)"/>
<path id="Vector_9" fill-rule="evenodd" clip-rule="evenodd" d="M34.9914 12.1205H35.4982V14.8432H34.2138C32.9723 14.8432 31.99 14.4826 31.2709 13.7634C30.5517 13.0443 30.1912 12.0562 30.1912 10.801V5.97932H28.1448V5.32447L32.6157 0.567082H33.1984V3.52364H35.4358V5.97932H33.2491V10.3898C33.2491 10.9433 33.3991 11.3682 33.6993 11.6683C33.9994 11.9685 34.4301 12.1185 34.9895 12.1185" fill="var(--fill-0, #00071E)"/>
<path id="Vector_10" fill-rule="evenodd" clip-rule="evenodd" d="M30.4035 19.3609C30.0663 19.0374 29.8968 18.6476 29.8968 18.1954C29.8968 17.6633 30.0858 17.2268 30.4639 16.8877C30.842 16.5485 31.3351 16.3887 31.9451 16.4082C32.4889 16.4258 32.9293 16.5914 33.2665 16.9033C33.6037 17.2131 33.7732 17.5893 33.7732 18.0278C33.7732 18.6008 33.5803 19.0568 33.1964 19.396C32.8124 19.7351 32.3154 19.8949 31.7054 19.8735C31.1753 19.8559 30.7407 19.6844 30.4035 19.3589" fill="var(--fill-0, #00071E)"/>
<path id="Vector_11" fill-rule="evenodd" clip-rule="evenodd" d="M26.8506 25.8664C26.3127 22.945 22.8962 22.3622 20.4951 21.76C19.8597 21.5671 18.9359 21.339 18.5812 20.7271C18.2129 20.1346 18.4487 19.3511 19.0723 19.0139C20.4561 18.1915 23.1515 18.6241 23.0852 20.6374H26.5017C26.5017 20.2885 26.4784 19.9572 26.4316 19.6415C26.4316 19.6415 26.4316 19.6395 26.4316 19.6356C26.262 18.5092 25.7884 17.5912 25.0108 16.8837C25.0108 16.8837 25.005 16.8779 25.005 16.8759C22.7208 14.4183 18.1778 14.5391 16.0729 17.1722H16.071C15.7162 17.5581 15.4453 17.9946 15.2621 18.4897C15.2602 18.4936 15.2582 18.4994 15.2563 18.5053C14.5215 20.6394 15.0867 23.0697 17.3904 24.0851C18.209 24.5412 20.5535 25.0459 21.8652 25.4221C22.4947 25.6248 23.0716 25.8937 23.3737 26.4453C23.6485 27.1489 23.3834 27.9362 22.711 28.3592C21.5027 29.1816 19.3432 29.0432 18.5188 27.7589C18.5188 27.7589 18.5188 27.7569 18.5169 27.755C18.5091 27.7413 18.5013 27.7257 18.4935 27.7121C18.4838 27.6946 18.4721 27.677 18.4623 27.6595C18.4623 27.6595 18.4623 27.6575 18.4623 27.6556C16.6401 24.4184 12.0113 23.4751 8.85594 25.2603C7.10967 26.2153 5.93641 27.8856 5.56221 29.8033H9.2048C9.69204 28.5073 10.9004 27.6322 12.4167 27.6536C13.6679 27.6458 14.7086 28.2013 15.3401 29.205C15.3654 29.2498 15.3908 29.2966 15.4142 29.3414C16.8934 31.9472 20.4951 32.5319 23.2762 31.7464C25.9814 31.0175 27.4295 28.6223 26.8604 25.8664" fill="url(#paint0_linear_0_29)"/>
</g>
<defs>
<linearGradient id="paint0_linear_0_29" x1="7.27534" y1="32.986" x2="23.5393" y2="21.8711" gradientUnits="userSpaceOnUse">
<stop stop-color="#6F39FF"/>
<stop offset="0.43" stop-color="#6879FF"/>
<stop offset="1" stop-color="#11EBB7"/>
</linearGradient>
</defs>
</svg>
