<svg viewBox="0 0 16 16" fill="none" xmlns="http://www.w3.org/2000/svg">
<g id="Group">
<g id="Vector">
</g>
<path id="Vector_2" d="M6 1.33533V1.33333H13.332C13.7 1.33333 14 1.63667 14 1.99467V14.0053C13.9998 14.1808 13.93 14.349 13.8059 14.473C13.6817 14.597 13.5135 14.6667 13.338 14.6667H2.662C2.57445 14.6661 2.48788 14.6482 2.40723 14.6141C2.32658 14.5801 2.25343 14.5304 2.19196 14.4681C2.13048 14.4058 2.08189 14.3319 2.04896 14.2508C2.01602 14.1697 1.99939 14.0829 2 13.9953V5.33333L6 1.33533ZM3.88667 5.33333H6V3.22L3.88667 5.33333ZM7.33333 2.66667V6C7.33333 6.17681 7.2631 6.34638 7.13807 6.4714C7.01305 6.59643 6.84348 6.66667 6.66667 6.66667H3.33333V13.3333H12.6667V2.66667H7.33333Z" fill="var(--fill-0, #09121F)"/>
</g>
</svg>
