<svg viewBox="0 0 16 16" fill="none" xmlns="http://www.w3.org/2000/svg">
<g id="Frame" clip-path="url(#clip0_0_10)">
<g id="Vector">
</g>
<path id="Union" d="M9.51008 10.4268C10.604 9.96383 11.63 10.5375 11.6302 11.877C11.6302 12.5437 11.3738 13.0638 10.8323 13.4951L10.7327 13.5703L10.8665 13.5771C11.2325 13.5866 11.6287 13.541 12.0247 13.4277L12.1732 13.3809C12.5964 13.2398 13.1166 12.8519 13.5003 12.4238C13.6058 12.3065 13.7539 12.2359 13.9115 12.2275C14.0688 12.2192 14.2229 12.2736 14.3402 12.3789C14.4574 12.4842 14.5279 12.6317 14.5365 12.7891C14.5449 12.9466 14.4905 13.1014 14.3851 13.2188C13.8753 13.7864 13.1982 14.2941 12.5482 14.5098C11.4084 14.8886 10.1758 14.8454 9.28645 14.4277L9.11555 14.3408L8.86751 14.4219L8.54719 14.5166C8.41861 14.5527 8.28863 14.5837 8.15754 14.6094L7.84114 14.666L7.47981 14.7188L7.07161 14.7676L6.61946 14.8125L6.37532 14.834L5.57454 14.8916L4.98176 14.9258C4.90241 14.9327 4.82217 14.923 4.74641 14.8984C4.67068 14.8738 4.6005 14.8344 4.54036 14.7822C4.4802 14.73 4.43084 14.6663 4.39583 14.5947C4.36083 14.5231 4.34054 14.4448 4.33626 14.3652C4.332 14.2856 4.34426 14.2058 4.37141 14.1309C4.39855 14.056 4.44028 13.9871 4.49446 13.9287C4.54878 13.8703 4.61499 13.8236 4.68782 13.791C4.76048 13.7585 4.83871 13.7409 4.91829 13.7393L5.70247 13.6914L6.17415 13.6562L6.60383 13.6201L6.80403 13.5996L7.17219 13.5586L7.49739 13.5156L7.78157 13.4697C7.91308 13.4467 8.02823 13.423 8.12727 13.3984L8.19172 13.3809L8.15754 13.2988C8.12586 13.2172 8.1002 13.1319 8.0804 13.0439L8.05501 12.9092C7.89352 11.84 8.56144 10.8272 9.51008 10.4268ZM10.9749 0.899414C11.2304 0.89949 11.484 0.951037 11.72 1.04883C11.9561 1.14676 12.1712 1.29088 12.3519 1.47168L13.2415 2.36133C13.4223 2.54205 13.5665 2.75705 13.6644 2.99316C13.7621 3.22922 13.8128 3.48279 13.8128 3.73828C13.8128 3.99378 13.7621 4.24734 13.6644 4.4834C13.5665 4.71957 13.4224 4.9345 13.2415 5.11523L6.38508 11.9717C6.25541 12.1011 6.09775 12.1995 5.92512 12.2607L5.9261 12.2617L2.97786 13.3105V13.3096C2.75811 13.3878 2.5199 13.4027 2.29231 13.3516C2.06486 13.3003 1.85571 13.1853 1.69075 13.0205C1.52585 12.8556 1.41111 12.6464 1.35969 12.4189C1.30844 12.1914 1.32257 11.9532 1.40071 11.7334L2.39583 8.93848C2.4926 8.66732 2.64885 8.4196 2.85383 8.21484L9.59797 1.4707V1.47168C9.77877 1.29078 9.99354 1.14675 10.2298 1.04883C10.4659 0.951072 10.7194 0.899422 10.9749 0.899414ZM10.4417 11.877C10.4416 11.4389 10.3234 11.3741 9.97395 11.5215C9.49603 11.7237 9.15628 12.2386 9.23079 12.7324C9.24278 12.8094 9.26958 12.8835 9.30989 12.9502L9.33919 12.9932L9.37239 12.9795C10.112 12.6624 10.4078 12.3404 10.4388 11.9473L10.4417 11.877ZM3.84309 9.20508C3.7863 9.2618 3.74177 9.33186 3.71419 9.40918L2.83626 11.874L5.42219 10.9541L10.7523 5.62402L9.08821 3.95996L3.84309 9.20508ZM10.9749 2.30078C10.9031 2.30079 10.8313 2.31435 10.765 2.3418C10.6987 2.36928 10.6389 2.41025 10.5882 2.46094H10.5872L10.1488 2.89844L11.8138 4.56348L12.2523 4.12598V4.125C12.3029 4.07435 12.3439 4.01438 12.3714 3.94824C12.3989 3.88199 12.4124 3.81 12.4124 3.73828C12.4124 3.66682 12.3986 3.59537 12.3714 3.5293C12.344 3.46315 12.3028 3.40224 12.2523 3.35156L11.3616 2.46094C11.311 2.4103 11.25 2.36929 11.1839 2.3418C11.1178 2.31449 11.0464 2.30086 10.9749 2.30078Z" fill="var(--fill-0, #221D39)"/>
</g>
<defs>
<clipPath id="clip0_0_10">
<rect width="16" height="16" fill="white"/>
</clipPath>
</defs>
</svg>
