<svg viewBox="0 0 16 16" fill="none" xmlns="http://www.w3.org/2000/svg">
<g id="Frame" clip-path="url(#clip0_0_20)">
<path id="Vector" d="M16 0H0V16H16V0Z" fill="var(--fill-0, white)" fill-opacity="0.01"/>
<path id="Vector_2" d="M14.8167 1.18324C14.9102 1.2767 14.9754 1.39466 15.0049 1.52355C15.0343 1.65244 15.0268 1.78703 14.9831 1.91182L10.5589 14.5523C10.5125 14.6852 10.4271 14.801 10.314 14.8848C10.2009 14.9686 10.0652 15.0165 9.92457 15.0222C9.78392 15.0279 9.6448 14.9912 9.52525 14.9169C9.40571 14.8425 9.31126 14.734 9.25417 14.6053L6.83597 9.16395L1.39459 6.74575C1.26592 6.68866 1.15738 6.59421 1.08305 6.47467C1.00872 6.35512 0.972037 6.216 0.977752 6.07535C0.983468 5.9347 1.03132 5.79901 1.11511 5.68589C1.19889 5.57277 1.31474 5.48744 1.44761 5.44098L14.0881 1.01681C14.2129 0.973149 14.3475 0.965609 14.4764 0.995052C14.6053 1.0245 14.7232 1.08973 14.8167 1.18324ZM3.5835 6.18115L7.65304 7.98979C7.81204 8.06041 7.93916 8.18753 8.00978 8.34653L9.81807 12.4161L13.1755 2.82439L3.5835 6.18115Z" fill="var(--fill-0, #221D39)"/>
<path id="Vector_3" d="M14.1144 1.88549C14.246 2.01718 14.32 2.19577 14.32 2.38198C14.32 2.56819 14.246 2.74678 14.1144 2.87847L8.14526 8.84759C8.08048 8.91466 8.00299 8.96816 7.91731 9.00496C7.83164 9.04177 7.73949 9.06114 7.64624 9.06195C7.553 9.06276 7.46053 9.04499 7.37422 9.00968C7.28792 8.97437 7.20951 8.92223 7.14358 8.85629C7.07764 8.79036 7.02549 8.71195 6.99019 8.62565C6.95488 8.53934 6.93711 8.44687 6.93792 8.35363C6.93873 8.26038 6.9581 8.16823 6.9949 8.08256C7.03171 7.99688 7.08521 7.91939 7.15228 7.85461L13.1214 1.88549C13.2531 1.75384 13.4317 1.67988 13.6179 1.67988C13.8041 1.67988 13.9827 1.75384 14.1144 1.88549Z" fill="var(--fill-0, #221D39)"/>
</g>
<defs>
<clipPath id="clip0_0_20">
<rect width="16" height="16" fill="white"/>
</clipPath>
</defs>
</svg>
