<svg viewBox="0 0 16 16" fill="none" xmlns="http://www.w3.org/2000/svg">
<g id="Group">
<g id="Vector">
</g>
<path id="Vector_2" d="M4 4.66667V2.66667C4 2.48986 4.07024 2.32029 4.19526 2.19526C4.32029 2.07024 4.48986 2 4.66667 2H8.94267L10.276 3.33333H14C14.1768 3.33333 14.3464 3.40357 14.4714 3.5286C14.5964 3.65362 14.6667 3.82319 14.6667 4V10.6667C14.6667 10.8435 14.5964 11.013 14.4714 11.1381C14.3464 11.2631 14.1768 11.3333 14 11.3333H12V13.3333C12 13.5101 11.9298 13.6797 11.8047 13.8047C11.6797 13.9298 11.5101 14 11.3333 14H2C1.82319 14 1.65362 13.9298 1.5286 13.8047C1.40357 13.6797 1.33333 13.5101 1.33333 13.3333V5.33333C1.33333 5.15652 1.40357 4.98695 1.5286 4.86193C1.65362 4.7369 1.82319 4.66667 2 4.66667H4ZM4 6H2.66667V12.6667H10.6667V11.3333H4V6ZM5.33333 3.33333V10H13.3333V4.66667H9.724L8.39067 3.33333H5.33333Z" fill="var(--fill-0, #09121F)"/>
</g>
</svg>
