<svg viewBox="0 0 16 16" fill="none" xmlns="http://www.w3.org/2000/svg" aria-hidden="true">
  <g transform="translate(1.58 0.51)">
    <path d="M10.4311 3.54515L11.4679 2.5083L12.4769 3.51732L11.4401 4.55418C12.4647 5.83663 12.9593 7.46271 12.8224 9.09846C12.6855 10.7342 11.9275 12.2555 10.704 13.3498C9.48054 14.4441 7.88449 15.0284 6.24366 14.9828C4.60283 14.9371 3.04177 14.2649 1.88107 13.1042C0.720381 11.9435 0.0481675 10.3824 0.00248962 8.74158C-0.0431882 7.10075 0.541137 5.5047 1.63546 4.28124C2.72978 3.05777 4.25103 2.29975 5.88678 2.16286C7.52253 2.02596 9.14861 2.52059 10.4311 3.54515ZM6.42207 13.5584C7.07805 13.5584 7.7276 13.4292 8.33365 13.1781C8.93969 12.9271 9.49035 12.5591 9.9542 12.0953C10.418 11.6315 10.786 11.0808 11.037 10.4747C11.2881 9.8687 11.4173 9.21915 11.4173 8.56317C11.4173 7.90719 11.2881 7.25764 11.037 6.6516C10.786 6.04555 10.418 5.49489 9.9542 5.03104C9.49035 4.5672 8.93969 4.19925 8.33365 3.94822C7.7276 3.69719 7.07805 3.56799 6.42207 3.56799C5.09727 3.56799 3.82672 4.09426 2.88994 5.03104C1.95317 5.96782 1.42689 7.23837 1.42689 8.56317C1.42689 9.88798 1.95317 11.1585 2.88994 12.0953C3.82672 13.0321 5.09727 13.5584 6.42207 13.5584ZM5.70847 4.99518H7.13567V9.27677H5.70847V4.99518ZM3.56768 0H9.27646V1.4272H3.56768V0Z" fill="#09121F"/>
  </g>
</svg>
