<svg preserveAspectRatio="none" width="100%" height="100%" overflow="visible" style="display: block;" viewBox="0 0 16 16" fill="none" xmlns="http://www.w3.org/2000/svg">
<g id="&#231;&#173;&#190;&#231;&#189;&#178;/&#230;&#168;&#161;&#230;&#157;&#191;">
<g id="Union">
<path d="M1 2.8C1 2.57909 1.17909 2.4 1.4 2.4H14.6C14.8209 2.4 15 2.57909 15 2.8V13.2C15 13.4209 14.8209 13.6 14.6 13.6H1.4C1.17909 13.6 1 13.4209 1 13.2V2.8ZM2.6 4V12L6.04071 8.72289L7.37876 10.0723L13.4 4H2.6ZM4.9 7.4C5.50751 7.4 6 6.90751 6 6.3C6 5.69249 5.50751 5.2 4.9 5.2C4.29249 5.2 3.8 5.69249 3.8 6.3C3.8 6.90751 4.29249 7.4 4.9 7.4Z" fill="#262626"/>
</g>
<g id="Rectangle 58">
</g>
</g>
</svg>
