<svg preserveAspectRatio="none" width="100%" height="100%" overflow="visible" style="display: block;" viewBox="0 0 16 16" fill="none" xmlns="http://www.w3.org/2000/svg">
<g id="&#231;&#173;&#190;&#231;&#189;&#178;/&#230;&#168;&#161;&#230;&#157;&#191;">
<g id="Union">
<path fill-rule="evenodd" clip-rule="evenodd" d="M5.2 2H6.8V3.2H9.2V2H10.8V3.2H14C14.2209 3.2 14.4 3.37909 14.4 3.6V13.8C14.4 14.0209 14.2209 14.2 14 14.2H2C1.77909 14.2 1.6 14.0209 1.6 13.8V3.6C1.6 3.37909 1.77909 3.2 2 3.2H5.2V2ZM9.2 4.8V6H10.8V4.8H12.8V7.6H3.2V4.8H5.2V6H6.8V4.8H9.2ZM4.8 9.6C4.24772 9.6 3.8 10.0477 3.8 10.6C3.8 11.1523 4.24772 11.6 4.8 11.6C5.35228 11.6 5.8 11.1523 5.8 10.6C5.8 10.0477 5.35228 9.6 4.8 9.6ZM7 10.6C7 11.1523 7.44772 11.6 8 11.6C8.55228 11.6 9 11.1523 9 10.6C9 10.0477 8.55228 9.6 8 9.6C7.44772 9.6 7 10.0477 7 10.6ZM11.2 9.6C10.6477 9.6 10.2 10.0477 10.2 10.6C10.2 11.1523 10.6477 11.6 11.2 11.6C11.7523 11.6 12.2 11.1523 12.2 10.6C12.2 10.0477 11.7523 9.6 11.2 9.6Z" fill="#262626"/>
</g>
<g id="Rectangle 61">
</g>
</g>
</svg>
