<svg preserveAspectRatio="none" width="100%" height="100%" overflow="visible" style="display: block;" viewBox="0 0 16 16" fill="none" xmlns="http://www.w3.org/2000/svg">
<g id="Frame">
<path id="Vector" d="M14.9544 11.3135C15.2613 11.3135 15.5101 11.5623 15.5101 11.8692V14.1153C15.5101 14.4222 15.2613 14.671 14.9544 14.671H1.05601C0.908628 14.671 0.767286 14.6125 0.663073 14.5083C0.55886 14.404 0.500313 14.2627 0.500313 14.1153V11.8692C0.500313 11.5623 0.749141 11.3135 1.05601 11.3135H14.9544ZM14.398 12.4249H1.61237V13.559H14.398V12.4249ZM14.398 1.32899C15.0118 1.32899 15.5101 1.82665 15.5101 2.44105V9.44428C15.5101 10.058 15.0124 10.5557 14.398 10.5557H1.61237C0.998637 10.5557 0.500313 10.058 0.500313 9.44428V2.44105C0.500313 1.82732 0.99797 1.32899 1.61237 1.32899H14.398ZM14.398 2.44105H1.61237V9.44428H14.398V2.44105Z" fill="var(--fill-0, #262626)"/>
</g>
</svg>
