<svg preserveAspectRatio="none" width="100%" height="100%" overflow="visible" style="display: block;" viewBox="0 0 13.3743 13.5847" fill="none" xmlns="http://www.w3.org/2000/svg">
<path id="Union" d="M8.30176 9.0428C9.40538 8.57602 10.4412 9.15538 10.4414 10.5067C10.4414 11.1792 10.1822 11.705 9.63574 12.1405L9.53516 12.2157L9.66895 12.2225C10.0382 12.2324 10.4395 12.1861 10.8389 12.0711L10.9893 12.0242C11.417 11.8819 11.9409 11.4894 12.3281 11.0584C12.5495 10.8121 12.9293 10.7923 13.1758 11.0135C13.4219 11.235 13.4419 11.6138 13.2207 11.8602C12.7061 12.4329 12.0224 12.9452 11.3672 13.1629C10.2166 13.5452 8.97225 13.5028 8.0752 13.0819L7.90332 12.993L7.65332 13.0741L7.33008 13.1707C7.21555 13.2035 7.08373 13.2349 6.93555 13.2645L6.61621 13.3211L6.25195 13.3748L5.84082 13.4237L5.38379 13.4696C5.30386 13.4768 5.22151 13.4831 5.1377 13.4901L4.3291 13.5487L3.73145 13.5838C3.40065 13.6012 3.11807 13.3463 3.10059 13.0155C3.08341 12.6849 3.33742 12.4023 3.66797 12.3846L4.45898 12.3377L4.93457 12.3026L5.36914 12.2655C5.43783 12.259 5.50511 12.2526 5.57031 12.2459L5.94141 12.2039L6.27051 12.161L6.55664 12.1151C6.68886 12.0917 6.80535 12.0678 6.90527 12.0428L6.97168 12.0242L6.93652 11.9422C6.90474 11.86 6.87848 11.7741 6.8584 11.6854L6.83301 11.5496C6.6698 10.4703 7.34412 9.44803 8.30176 9.0428ZM9.18555 4.91585L2.68164 11.5242L0 11.9256L0.269531 9.1512L6.77344 2.54183L9.18555 4.91585ZM9.24121 10.5067C9.24114 10.0649 9.12239 9.99812 8.76953 10.1473C8.28722 10.3514 7.94425 10.8718 8.01953 11.37C8.0312 11.4469 8.05865 11.5207 8.09961 11.5897L8.12891 11.6326L8.16211 11.619C8.90829 11.299 9.20727 10.9746 9.23828 10.578L9.24121 10.5067ZM9.05078 0.22835C9.35642 -0.0821957 9.86727 -0.0750397 10.1914 0.243975L11.4297 1.46272C11.7535 1.78176 11.7684 2.29195 11.4629 2.60237L10.0156 4.0721L7.60449 1.69905L9.05078 0.22835Z" fill="var(--fill-0, #262626)"/>
</svg>
