<svg width="32" height="32" viewBox="0 0 32 32" fill="none" xmlns="http://www.w3.org/2000/svg">
<rect x="32" width="32" height="32" rx="5" transform="rotate(90 32 0)" fill="white"/>
<path d="M20.0898 17.5834C20.0898 20.9607 17.3949 23.6986 14.0705 23.6986C10.85 23.6986 8.22024 21.1291 8.05911 17.8979L8.05127 17.5834L8.05127 10.1942C8.05127 9.77207 8.38813 9.42983 8.80368 9.42984C9.21922 9.42984 9.55609 9.77207 9.55609 10.1942L9.55609 17.5834C9.55609 20.1164 11.5773 22.1698 14.0705 22.1698C16.5638 22.1698 18.585 20.1164 18.585 17.5834L18.585 10.1942C18.585 9.77207 18.9219 9.42984 19.3374 9.42984C19.7529 9.42984 20.0898 9.77207 20.0898 10.1942L20.0898 17.5834Z" fill="#262626"/>
<path d="M18.8659 7.9225C19.1597 7.62398 19.6361 7.62398 19.9299 7.9225C20.2238 8.22101 20.2238 8.705 19.9299 9.00352L16.0284 12.9673C15.7345 13.2658 15.2581 13.2658 14.9643 12.9673C14.6705 12.6688 14.6705 12.1848 14.9643 11.8862L18.8659 7.9225Z" fill="#262626"/>
<path d="M18.8652 9.00353C18.5714 8.70501 18.572 8.22101 18.8659 7.9225C19.1597 7.62398 19.6361 7.62398 19.9299 7.9225L23.8309 11.8863C24.1247 12.1848 24.1247 12.6688 23.8309 12.9673C23.5371 13.2658 23.0607 13.2658 22.7668 12.9673L18.8652 9.00353Z" fill="#262626"/>
</svg>
