<svg width="32" height="32" viewBox="0 0 32 32" fill="none" xmlns="http://www.w3.org/2000/svg">
<rect width="32" height="32" rx="5" fill="white"/>
<path d="M17.5833 11.9102C20.9606 11.9102 23.6985 14.6051 23.6985 17.9295C23.6985 21.15 21.129 23.7798 17.8978 23.9409L17.5833 23.9487L10.1941 23.9487C9.77195 23.9487 9.42971 23.6119 9.42971 23.1963C9.42971 22.7808 9.77195 22.4439 10.1941 22.4439L17.5833 22.4439C20.1163 22.4439 22.1697 20.4227 22.1697 17.9295C22.1697 15.4362 20.1163 13.415 17.5833 13.415L10.1941 13.415C9.77195 13.415 9.42971 13.0781 9.42971 12.6626C9.42971 12.2471 9.77195 11.9102 10.1941 11.9102L17.5833 11.9102Z" fill="#262626"/>
<path d="M7.92237 13.1341C7.62386 12.8403 7.62386 12.3639 7.92237 12.0701C8.22089 11.7762 8.70488 11.7762 9.0034 12.0701L12.9671 15.9716C13.2657 16.2655 13.2657 16.7419 12.9671 17.0357C12.6686 17.3295 12.1846 17.3295 11.8861 17.0357L7.92237 13.1341Z" fill="#262626"/>
<path d="M9.0034 13.1348C8.70489 13.4286 8.22089 13.428 7.92237 13.1341C7.62386 12.8403 7.62386 12.3639 7.92237 12.0701L11.8861 8.16911C12.1846 7.87527 12.6686 7.87527 12.9672 8.16911C13.2657 8.46294 13.2657 8.93934 12.9672 9.23317L9.0034 13.1348Z" fill="#262626"/>
</svg>
