<svg width="22" height="21" viewBox="0 0 22 21" fill="none" xmlns="http://www.w3.org/2000/svg">
<path d="M18.3333 9.26275L20.0089 7.66237L21.306 8.9005L17.4166 12.6122L13.5272 8.9005L14.8243 7.66237L16.4999 9.26275V7C16.4999 6.30381 16.2102 5.63613 15.6945 5.14384C15.1787 4.65156 14.4793 4.375 13.7499 4.375H10.0833V2.625H13.7499C14.3518 2.625 14.9478 2.73816 15.5039 2.95803C16.06 3.17789 16.5652 3.50015 16.9908 3.90641C17.4164 4.31266 17.754 4.79496 17.9844 5.32576C18.2147 5.85656 18.3333 6.42547 18.3333 7V9.26275ZM11.9166 7.875C12.1597 7.875 12.3929 7.96719 12.5648 8.13128C12.7367 8.29538 12.8333 8.51794 12.8333 8.75V17.5C12.8333 17.7321 12.7367 17.9546 12.5648 18.1187C12.3929 18.2828 12.1597 18.375 11.9166 18.375H2.74992C2.5068 18.375 2.27365 18.2828 2.10174 18.1187C1.92983 17.9546 1.83325 17.7321 1.83325 17.5V8.75C1.83325 8.63509 1.85696 8.52131 1.90303 8.41515C1.9491 8.30899 2.01662 8.21253 2.10174 8.13128C2.18686 8.05003 2.28791 7.98558 2.39913 7.94161C2.51034 7.89763 2.62954 7.875 2.74992 7.875H11.9166ZM10.9999 9.625H3.66659V16.625H10.9999V9.625Z" fill="black"/>
</svg>
