<svg width="32" height="32" viewBox="0 0 32 32" fill="none" xmlns="http://www.w3.org/2000/svg">
<rect width="32" height="32" rx="5" fill="white"/>
<path d="M17.5835 11.9102C20.9609 11.9102 23.6987 14.6051 23.6987 17.9295C23.6987 21.15 21.1292 23.7798 17.8981 23.9409L17.5835 23.9487H10.1944C9.77219 23.9487 9.42996 23.6119 9.42996 23.1963C9.42996 22.7808 9.77219 22.4439 10.1944 22.4439H17.5835C20.1165 22.4439 22.1699 20.4227 22.1699 17.9295C22.1699 15.4362 20.1165 13.415 17.5835 13.415H10.1944C9.77219 13.415 9.42996 13.0781 9.42996 12.6626C9.42996 12.2471 9.77219 11.9102 10.1944 11.9102H17.5835Z" fill="#262626"/>
<path d="M7.92262 13.1341C7.6241 12.8403 7.6241 12.3639 7.92262 12.0701C8.22113 11.7762 8.70512 11.7762 9.00364 12.0701L12.9674 15.9716C13.2659 16.2655 13.2659 16.7419 12.9674 17.0357C12.6689 17.3295 12.1849 17.3295 11.8864 17.0357L7.92262 13.1341Z" fill="#262626"/>
<path d="M9.00365 13.1348C8.70513 13.4286 8.22113 13.428 7.92262 13.1341C7.6241 12.8403 7.6241 12.3639 7.92262 12.0701L11.8864 8.16911C12.1849 7.87527 12.6689 7.87527 12.9674 8.16911C13.2659 8.46294 13.2659 8.93934 12.9674 9.23317L9.00365 13.1348Z" fill="#262626"/>
</svg>
