<svg width="16" height="16" viewBox="0 0 16 16" fill="none" xmlns="http://www.w3.org/2000/svg">
<g id="Group">
<g id="Vector">
</g>
<path id="Vector_2" d="M3.40928 6.66667V13.3333H12.6667V6.66667H3.40928ZM12 5.33333H13.3333C13.5101 5.33333 13.6797 5.40357 13.8047 5.5286C13.9298 5.65362 14 5.82319 14 6V14C14 14.1768 13.9298 14.3464 13.8047 14.4714C13.6797 14.5964 13.5101 14.6667 13.3333 14.6667H2.66667C2.48986 14.6667 2.32029 14.5964 2.19526 14.4714C2.07024 14.3464 2 14.1768 2 14V6C2 5.82319 2.07024 5.65362 2.19526 5.5286C2.32029 5.40357 2.48986 5.33333 2.66667 5.33333H4V4.66667C4 3.6058 4.42143 2.58839 5.17157 1.83824C5.92172 1.08809 6.93913 0.666667 8 0.666667C9.06087 0.666667 10.0783 1.08809 10.8284 1.83824C11.5786 2.58839 12 3.6058 12 4.66667V5.33333ZM10.6667 5.33333V4.66667C10.6667 3.95942 10.3857 3.28115 9.88562 2.78105C9.38552 2.28095 8.70724 2 8 2C7.29276 2 6.61448 2.28095 6.11438 2.78105C5.61428 3.28115 5.33333 3.95942 5.33333 4.66667V5.33333H10.6667ZM7.33051 7.33333H8.66384V8.66667H7.33051V7.33333ZM7.33051 9.33333H8.66384V10.6667H7.33051V9.33333ZM7.33051 11.3333H8.66384V12.6667H7.33051V11.3333Z" fill="var(--fill-0, #221D39)"/>
</g>
</svg>
