<svg width="16" height="16" viewBox="0 0 16 16" fill="none" xmlns="http://www.w3.org/2000/svg">
<g id="&#231;&#173;&#190;&#231;&#189;&#178;/&#230;&#168;&#161;&#230;&#157;&#191;-&#231;&#186;&#191;&#230;&#128;&#167;/&#233;&#157;&#162;&#230;&#128;&#167;&#239;&#188;&#136;20x20px&#239;&#188;&#137;&#239;&#188;&#136;&#229;&#190;&#133;&#229;&#174;&#154;*2&#239;&#188;&#137;">
<g id="Rectangle 55">
</g>
<path id="Union" d="M11.9998 13.5508V14.751H3.99976V13.5508H11.9998ZM7.99976 0.906262C9.511 0.906262 10.7361 2.13135 10.7361 3.64259C10.7361 4.43328 10.401 5.14559 9.86597 5.64454L10.3894 7.45021H12.6189C13.3861 7.45021 14.0085 8.07174 14.0085 8.83888V12.5381H1.99195V8.83888C1.99203 8.0719 2.61368 7.45047 3.38062 7.45021H5.61011L6.13452 5.64454C5.59945 5.14559 5.26343 4.43332 5.26343 3.64259C5.26345 2.13148 6.48868 0.90646 7.99976 0.906262ZM7.99976 2.14454C7.17277 2.14474 6.50271 2.81556 6.50269 3.64259C6.50269 4.16764 6.77204 4.63016 7.18335 4.89845L7.56812 5.14943L6.54077 8.68849H3.38062C3.29776 8.68875 3.23031 8.75599 3.23023 8.83888V11.2988H12.7693V8.83888C12.7692 8.75582 12.702 8.68849 12.6189 8.68849H9.45972L8.43237 5.14943L8.81616 4.89845C9.22761 4.63018 9.4978 4.16774 9.4978 3.64259C9.49778 2.81544 8.82692 2.14454 7.99976 2.14454Z" fill="var(--fill-0, #221D39)"/>
</g>
</svg>
