<svg width="16" height="16" viewBox="0 0 16 16" fill="none" xmlns="http://www.w3.org/2000/svg">
<g id="Group">
<g id="Vector">
</g>
<path id="Vector_2" d="M13.3333 14.6667H2.66667C2.48986 14.6667 2.32029 14.5964 2.19526 14.4714C2.07024 14.3464 2 14.1768 2 14V2C2 1.82319 2.07024 1.65362 2.19526 1.5286C2.32029 1.40357 2.48986 1.33333 2.66667 1.33333H13.3333C13.5101 1.33333 13.6797 1.40357 13.8047 1.5286C13.9298 1.65362 14 1.82319 14 2V14C14 14.1768 13.9298 14.3464 13.8047 14.4714C13.6797 14.5964 13.5101 14.6667 13.3333 14.6667ZM12.6667 13.3333V2.66667H3.33333V13.3333H12.6667ZM6 4V5.33333C6 5.86377 6.21071 6.37247 6.58579 6.74755C6.96086 7.12262 7.46957 7.33333 8 7.33333C8.53043 7.33333 9.03914 7.12262 9.41421 6.74755C9.78929 6.37247 10 5.86377 10 5.33333V4H11.3333V5.33333C11.3333 6.21739 10.9821 7.06523 10.357 7.69036C9.7319 8.31548 8.88406 8.66667 8 8.66667C7.11595 8.66667 6.2681 8.31548 5.64298 7.69036C5.01786 7.06523 4.66667 6.21739 4.66667 5.33333V4H6Z" fill="var(--fill-0, #09121F)"/>
</g>
</svg>
