<svg width="16" height="16" viewBox="0 0 16 16" fill="none" xmlns="http://www.w3.org/2000/svg">
  <g transform="translate(0.7 2.01)">
    <path id="Union" d="M10.1035 10.8613C10.4102 10.8613 10.6591 11.1093 10.6592 11.416C10.6592 11.7227 10.4103 11.9716 10.1035 11.9716H0.554688C0.248086 11.9714 0 11.7226 0 11.416C0.000115012 11.1094 0.248157 10.8615 0.554688 10.8613H10.1035ZM13.5186 10.8613C13.8252 10.8614 14.0741 11.1093 14.0742 11.416C14.0742 11.7227 13.8253 11.9715 13.5186 11.9716H11.5859C11.2792 11.9716 11.0312 11.7227 11.0312 11.416C11.0314 11.1093 11.2793 10.8614 11.5859 10.8613H13.5186ZM2.02637 0.811473C2.66239 0.20595 3.5019 -0.150329 4.46191 0.0614725C5.17145 0.218195 5.59882 0.663822 5.78809 1.23042C5.96192 1.75122 5.9258 2.34153 5.83594 2.84956C5.74392 3.36959 5.5827 3.87322 5.44531 4.25386C5.37616 4.44545 5.31216 4.61038 5.26465 4.73139C5.24044 4.79305 5.22231 4.83955 5.20898 4.87495C5.19122 4.92217 5.19427 4.91624 5.2002 4.89057C5.13121 5.18948 4.83308 5.37645 4.53418 5.30757C4.23534 5.23849 4.04922 4.93946 4.11816 4.64057C4.13188 4.58137 4.15657 4.51625 4.16895 4.48335C4.18571 4.43881 4.20759 4.38343 4.23047 4.32514C4.27772 4.20478 4.337 4.0525 4.40039 3.8769C4.5283 3.5225 4.66606 3.08638 4.74219 2.6562C4.82043 2.21388 4.82103 1.84158 4.73438 1.58198C4.66302 1.3686 4.53226 1.215 4.22168 1.14643C3.70535 1.03272 3.22855 1.20163 2.79297 1.61616C2.34604 2.04179 1.97316 2.70572 1.74219 3.47065C1.51213 4.23283 1.43672 5.04831 1.54199 5.74604C1.64809 6.44916 1.92427 6.9659 2.32715 7.24702C2.35415 7.26584 2.38189 7.28318 2.40918 7.30073C2.88868 6.84037 3.2165 6.35401 3.36328 6.06636C3.50267 5.79325 3.83715 5.68411 4.11035 5.82319C4.38346 5.96272 4.49194 6.29802 4.35254 6.57124C4.20082 6.86857 3.93777 7.27144 3.57715 7.68452C3.96823 7.71 4.37557 7.65061 4.79199 7.51753C5.17291 7.39574 5.55259 7.21253 5.92285 6.99116C5.94375 6.54378 6.03787 6.07916 6.1748 5.64253C6.42033 4.85992 6.82372 4.07521 7.29395 3.47846C7.52911 3.18005 7.79352 2.91169 8.08008 2.71675C8.36362 2.52391 8.70645 2.37742 9.08105 2.39057C9.29285 2.39808 9.51625 2.45143 9.70801 2.59077C9.90672 2.73533 10.0223 2.93646 10.0732 3.14546C10.1655 3.52437 10.0531 3.94269 9.9043 4.29585C9.59188 5.03725 8.92949 5.93022 8.10547 6.71284C7.78853 7.01383 7.43889 7.3048 7.06738 7.57026C7.0736 7.59895 7.07919 7.62747 7.08691 7.65425C7.14017 7.83832 7.22226 7.9533 7.31738 8.02534C7.41188 8.09678 7.56852 8.16395 7.83984 8.16401C8.20266 8.16401 8.53178 8.01037 8.8623 7.71772C9.20068 7.41809 9.5065 7.00224 9.81152 6.53999C10.0981 6.10568 10.407 5.58995 10.7021 5.21479C10.8543 5.02145 11.0288 4.83068 11.2275 4.6855C11.4299 4.53781 11.6861 4.41801 11.9883 4.41792L12.0898 4.4228C12.1977 4.43591 12.3245 4.4745 12.4414 4.56538C12.6058 4.69341 12.6736 4.86629 12.6953 5.00483C12.7309 5.23359 12.6557 5.46107 12.6094 5.58882C12.5088 5.86622 12.2952 6.2815 12.168 6.56538C12.0954 6.72727 12.0365 6.87305 11.998 6.99995C11.9802 7.05876 11.9697 7.10687 11.9629 7.14448C11.9707 7.1447 11.9793 7.14738 11.9883 7.14741C12.4218 7.14741 12.7205 6.91203 12.9707 6.49311C13.2344 6.05157 13.3703 5.53102 13.5098 5.10346C13.6049 4.81195 13.9184 4.65221 14.21 4.74702C14.5015 4.84213 14.6613 5.15563 14.5664 5.44721C14.4551 5.78831 14.271 6.48258 13.9248 7.06245C13.5649 7.66507 12.9625 8.25874 11.9883 8.25874C11.7167 8.25869 11.4291 8.20455 11.1982 8.02046C10.9507 7.82268 10.86 7.55027 10.8447 7.31245C10.8369 7.18905 10.8491 7.06505 10.8701 6.94819C10.8274 7.01415 10.7839 7.08323 10.7383 7.15229C10.4255 7.6263 10.0533 8.14717 9.59863 8.54975C9.13589 8.95939 8.55567 9.27436 7.83984 9.27436C7.3804 9.2743 6.97295 9.159 6.64648 8.91206C6.3832 8.71272 6.20485 8.45133 6.09082 8.16792C5.77825 8.32963 5.45785 8.47031 5.12988 8.57514C4.30364 8.83921 3.42071 8.89993 2.5752 8.60835C2.09348 8.96275 1.52227 9.26948 0.866211 9.42866C0.568124 9.50093 0.267726 9.31848 0.195312 9.02046C0.123106 8.72235 0.306394 8.42188 0.604492 8.34956C0.917837 8.27352 1.2113 8.14873 1.48438 7.99507C0.880088 7.47243 0.562937 6.70357 0.443359 5.91108C0.310023 5.02654 0.407859 4.04461 0.677734 3.15034C0.946785 2.25898 1.40164 1.40632 2.02637 0.811473ZM8.98828 3.50581C8.92487 3.5167 8.83075 3.55023 8.70508 3.63569C8.54002 3.74799 8.35482 3.92547 8.16602 4.16499C7.78796 4.64476 7.44491 5.30747 7.23535 5.97554C7.23149 5.98785 7.22739 6.00038 7.22363 6.01264C7.26236 5.97713 7.30284 5.94324 7.34082 5.90718C8.09447 5.19139 8.64551 4.42046 8.87988 3.86421C8.937 3.72861 8.97014 3.61767 8.98535 3.53315C8.98704 3.52357 8.98712 3.51432 8.98828 3.50581Z" fill="var(--fill-0, #221D39)"/>
  </g>
</svg>
