<svg width="16" height="16" viewBox="0 0 16 16" fill="none" xmlns="http://www.w3.org/2000/svg">
<g id="Group">
<g id="Vector">
</g>
<path id="Vector_2" d="M6.94267 2L8.276 3.33333H14C14.1768 3.33333 14.3464 3.40357 14.4714 3.5286C14.5964 3.65362 14.6667 3.82319 14.6667 4V13.3333C14.6667 13.5101 14.5964 13.6797 14.4714 13.8047C14.3464 13.9298 14.1768 14 14 14H2C1.82319 14 1.65362 13.9298 1.5286 13.8047C1.40357 13.6797 1.33333 13.5101 1.33333 13.3333V2.66667C1.33333 2.48986 1.40357 2.32029 1.5286 2.19526C1.65362 2.07024 1.82319 2 2 2H6.94267ZM6.39067 3.33333H2.66667V12.6667H13.3333V4.66667H7.724L6.39067 3.33333ZM8 6C8.29356 5.99987 8.57896 6.09662 8.81192 6.27524C9.04487 6.45387 9.21237 6.70438 9.28842 6.98792C9.36447 7.27145 9.34482 7.57216 9.23253 7.84339C9.12023 8.11462 8.92156 8.34121 8.66733 8.488L8.66667 11.3333H7.33333V8.488C7.07916 8.34124 6.88052 8.11471 6.76821 7.84354C6.6559 7.57238 6.63619 7.27174 6.71216 6.98824C6.78812 6.70474 6.95551 6.45422 7.18836 6.27555C7.4212 6.09687 7.7065 6.00001 8 6V6Z" fill="var(--fill-0, #221D39)"/>
</g>
</svg>
