<svg width="16" height="16" viewBox="0 0 16 16" fill="none" xmlns="http://www.w3.org/2000/svg">
<g id="Group">
<g id="Vector">
</g>
<path id="Vector_2" d="M1.56372 14.4362C1.56372 13.0682 2.10712 11.7563 3.07439 10.7891C4.04165 9.82182 5.35354 9.27842 6.72146 9.27842C8.08938 9.27842 9.40127 9.82182 10.3685 10.7891C11.3358 11.7563 11.8792 13.0682 11.8792 14.4362H10.5898C10.5898 13.4102 10.1822 12.4263 9.45676 11.7009C8.73131 10.9754 7.7474 10.5679 6.72146 10.5679C5.69552 10.5679 4.7116 10.9754 3.98616 11.7009C3.26071 12.4263 2.85316 13.4102 2.85316 14.4362H1.56372ZM6.72146 8.6337C4.58422 8.6337 2.85316 6.90264 2.85316 4.7654C2.85316 2.62816 4.58422 0.897095 6.72146 0.897095C8.8587 0.897095 10.5898 2.62816 10.5898 4.7654C10.5898 6.90264 8.8587 8.6337 6.72146 8.6337ZM6.72146 7.34427C8.14628 7.34427 9.30033 6.19022 9.30033 4.7654C9.30033 3.34057 8.14628 2.18653 6.72146 2.18653C5.29663 2.18653 4.14259 3.34057 4.14259 4.7654C4.14259 6.19022 5.29663 7.34427 6.72146 7.34427ZM12.0623 9.73166C12.9683 10.1397 13.7373 10.8008 14.2766 11.6353C14.816 12.4699 15.1029 13.4425 15.1028 14.4362H13.8133C13.8135 13.6909 13.5984 12.9614 13.1938 12.3354C12.7893 11.7094 12.2126 11.2136 11.533 10.9076L12.0617 9.73166H12.0623ZM11.6187 2.4528C12.2683 2.72055 12.8237 3.17523 13.2144 3.75914C13.6051 4.34306 13.8136 5.02989 13.8133 5.73247C13.8136 6.61724 13.4831 7.47013 12.8866 8.12362C12.2901 8.7771 11.4709 9.18395 10.5898 9.26424V7.96642C11.0675 7.898 11.5106 7.67824 11.8543 7.33941C12.1979 7.00057 12.4238 6.5605 12.4989 6.0838C12.574 5.60711 12.4942 5.1189 12.2714 4.69084C12.0486 4.26278 11.6945 3.91743 11.2609 3.70548L11.6187 2.4528V2.4528Z" fill="var(--fill-0, #221D39)"/>
</g>
</svg>
