<svg width="16" height="16" viewBox="0 0 16 16" fill="none" xmlns="http://www.w3.org/2000/svg">
<g id="Frame">
<path id="Union" d="M7.59985 0.800255C7.79977 0.700421 8.09916 0.700421 8.29907 0.800255L13.9993 4.10006C14.1992 4.20001 14.299 4.39991 14.2991 4.69967V11.3999C14.2991 11.6999 14.1993 11.9005 13.9993 12.0005L8.29907 15.3003C8.19916 15.4 8.09918 15.3999 7.99927 15.3999C7.89936 15.3999 7.79937 15.4001 7.69946 15.3003L1.99927 12.0005C1.79928 11.9004 1.69946 11.5999 1.69946 11.3999V4.69967C1.69956 4.39998 1.79946 4.20004 1.99927 4.10006L7.59985 0.800255ZM10.9153 10.8608C10.0755 11.0418 9.08776 11.1723 7.96606 11.1723C6.86503 11.1723 5.90023 11.0475 5.0813 10.8715C5.00689 11.3228 4.96531 11.748 4.94946 12.1313L7.99927 13.8999L11.0481 12.1313C11.0321 11.745 10.9908 11.316 10.9153 10.8608ZM2.99927 11.0005L3.69849 11.4057C3.72705 11.1252 3.76851 10.8325 3.82153 10.5307C3.69882 10.49 3.58078 10.45 3.46899 10.4087C3.29946 10.3459 3.14324 10.2816 2.99927 10.2202V11.0005ZM12.9993 10.2192C12.8489 10.2817 12.6853 10.3467 12.5081 10.4106C12.402 10.4488 12.2905 10.4852 12.175 10.5229C12.2288 10.8275 12.2703 11.1228 12.2991 11.4057L12.9993 11.0005V10.2192ZM7.99927 5.24166C7.13342 6.01793 6.49405 6.93143 6.02954 7.87643C5.74722 8.45082 5.52957 9.03473 5.36646 9.60299C6.09893 9.75951 6.96819 9.87252 7.96606 9.87252C8.98314 9.87249 9.87501 9.75489 10.6292 9.59322C10.4664 9.02816 10.2506 8.4474 9.96997 7.87643C9.50544 6.93138 8.86518 6.01795 7.99927 5.24166ZM2.99927 5.00045V8.78658C3.2219 8.90149 3.52996 9.04559 3.92017 9.1899C3.98226 9.21287 4.04729 9.2334 4.11353 9.25631C4.2974 8.6133 4.54287 7.95257 4.86255 7.30221C5.35907 6.29216 6.03859 5.30404 6.94556 4.44479C6.461 4.13764 5.92337 3.86914 5.32642 3.64986L2.99927 5.00045ZM10.6711 3.64986C10.0745 3.8691 9.53729 4.13777 9.05298 4.44479C9.95998 5.30404 10.6395 6.29215 11.136 7.30221C11.4545 7.95016 11.6984 8.60873 11.8821 9.24947C11.9451 9.2281 12.0072 9.20937 12.0667 9.18795C12.456 9.04761 12.7687 8.90726 12.9993 8.79342V5.00045L10.6711 3.64986ZM6.73071 2.83541C7.18795 3.05923 7.60892 3.31283 7.99927 3.58639C8.38938 3.31298 8.80992 3.05914 9.26685 2.83541L7.99927 2.10006L6.73071 2.83541Z" fill="var(--fill-0, #221D39)"/>
</g>
</svg>
