<svg width="16" height="16" viewBox="0 0 16 16" fill="none" xmlns="http://www.w3.org/2000/svg">
<g id="ICON/line/system">
<g id="Vector">
</g>
<path id="Vector_2" d="M8 0.666667L13.478 1.884C13.626 1.91691 13.7584 1.99931 13.8533 2.1176C13.9482 2.2359 14 2.38301 14 2.53467V9.19267C14 9.85116 13.8373 10.4995 13.5266 11.08C13.2158 11.6606 12.7666 12.1554 12.2187 12.5207L8 15.3333L3.78133 12.5207C3.23352 12.1555 2.78431 11.6607 2.47357 11.0803C2.16282 10.4999 2.00016 9.85171 2 9.19333V2.53467C2.00003 2.38301 2.05176 2.2359 2.14666 2.1176C2.24156 1.99931 2.37396 1.91691 2.522 1.884L8 0.666667ZM8 2.03267L3.33333 3.06933V9.19267C3.33334 9.63164 3.44172 10.0638 3.64884 10.4509C3.85597 10.8379 4.15543 11.1678 4.52067 11.4113L8 13.7313L11.4793 11.4113C11.8445 11.1679 12.1439 10.8381 12.351 10.4512C12.5581 10.0642 12.6665 9.63219 12.6667 9.19333V3.06933L8 2.03267Z" fill="var(--fill-0, #09121F)"/>
<path id="Vector_3" d="M7.203 7.90452L10.2577 4.89534L11.1879 5.86475L7.203 9.84963L4.81215 7.45878L5.81834 6.5214L7.203 7.90452Z" fill="var(--fill-0, #262626)"/>
</g>
</svg>
