<svg width="16" height="16" viewBox="0 0 16 16" fill="none" xmlns="http://www.w3.org/2000/svg">
<g id="Frame">
<path id="Vector" d="M14 4.1L8.3 0.8C8.1 0.7 7.8 0.7 7.6 0.8L2 4.1C1.8 4.2 1.7 4.4 1.7 4.7V11.4C1.7 11.6 1.8 11.9 2 12L7.7 15.3C7.8 15.4 7.9 15.4 8 15.4C8.1 15.4 8.2 15.4 8.3 15.3L14 12C14.2 11.9 14.3 11.7 14.3 11.4V4.7C14.3 4.4 14.2 4.2 14 4.1ZM13 11L8 13.9L3 11V5L8 2.1L13 5V11Z" fill="var(--fill-0, #262626)"/>
<path id="Vector_2" d="M5.7 5.8L5 6.9L7.3 8.4V11H8.7V8.4L11 6.9L10.3 5.8L8 7.2L5.7 5.8Z" fill="var(--fill-0, #262626)"/>
</g>
</svg>
