<svg viewBox="0 0 90 90" width="90" height="90" fill="none" xmlns="http://www.w3.org/2000/svg" aria-hidden="true">
<g id="Group 3438">
<path id="Rectangle 252" d="M13 10.5325C13 8.52219 14.6297 6.8925 16.64 6.8925H53.9077L78.52 30.7105V79.6925C78.52 81.7028 76.8903 83.3325 74.88 83.3325H16.64C14.6297 83.3325 13 81.7028 13 79.6925V10.5325Z" fill="url(#paint0_linear_24238_9959)"/>
<rect id="Rectangle 253" opacity="0.1" x="26.4478" y="36.6879" width="37.8277" height="3.64" rx="1.82" fill="white"/>
<rect id="Rectangle 254" opacity="0.1" x="26.4478" y="46.0794" width="37.8277" height="3.64" rx="1.82" fill="white"/>
<rect id="Rectangle 255" opacity="0.1" x="26.6948" y="55.47" width="37.8277" height="3.64" rx="1.82" fill="white"/>
<rect id="Rectangle 256" opacity="0.1" x="26.6948" y="64.861" width="37.8277" height="3.64" rx="1.82" fill="white"/>
<path id="BMP" d="M22.2066 61.2784L24.2159 44.8766H30.7024C32.1584 44.8911 33.2722 45.2042 34.0439 45.8157C34.8301 46.4127 35.2232 47.2935 35.2232 48.4583C35.2232 48.5748 35.2087 48.7932 35.1796 49.1135L35.0922 49.8998C34.9175 51.1374 34.3642 52.0547 33.4324 52.6516C34.0584 52.8991 34.5316 53.2777 34.852 53.7873C35.1723 54.2969 35.3324 54.9084 35.3324 55.6219C35.3324 55.8403 35.3252 56.0077 35.3106 56.1242L35.2014 57.0415C35.0267 58.3955 34.437 59.4439 33.4324 60.1864C32.4423 60.9144 31.0882 61.2784 29.3701 61.2784H22.2066ZM29.9161 51.7999C31.474 51.7707 32.3476 51.1519 32.5369 49.9435L32.6461 49.0699C32.748 47.8468 32.0273 47.2207 30.484 47.1916H26.5091L25.9412 51.7999H29.9161ZM29.6759 58.9197C30.5349 58.9051 31.212 58.7377 31.707 58.4174C32.202 58.0971 32.5005 57.653 32.6024 57.0851L32.7116 56.146C32.7844 55.4763 32.6097 54.9667 32.1875 54.6172C31.7798 54.2532 31.1392 54.0639 30.2656 54.0494H25.6792L25.0676 58.9197H29.6759ZM41.9848 44.8766L45.5884 58.2863H45.6757L52.599 44.8766H55.4382L53.4289 61.2784H51.0702L52.4898 49.7032L46.8332 60.6014C46.6003 61.0527 46.2363 61.2784 45.7412 61.2784H44.8458C44.3362 61.2784 44.0304 61.0527 43.9285 60.6014L40.9146 49.7032L39.495 61.2784H37.1363L39.1456 44.8766H41.9848ZM65.6933 44.8766C67.2075 44.8911 68.3723 45.2551 69.1877 45.9686C70.0176 46.6675 70.4326 47.6794 70.4326 49.0043C70.4326 49.3683 70.418 49.6523 70.3889 49.8561L70.2578 50.9699C70.054 52.5715 69.4425 53.8019 68.4233 54.6609C67.4041 55.5054 66.0427 55.9349 64.3392 55.9495H59.8838L59.2286 61.2784H56.6515L58.6608 44.8766H65.6933ZM64.6886 53.5471C65.5914 53.5325 66.283 53.3359 66.7634 52.9574C67.2439 52.5643 67.5424 51.9455 67.6589 51.101L67.8336 49.7687C67.8482 49.6668 67.8554 49.5285 67.8554 49.3538C67.8554 48.6403 67.6589 48.1235 67.2658 47.8031C66.8872 47.4683 66.2902 47.2935 65.4749 47.279H60.954L60.1678 53.5471H64.6886Z" fill="white"/>
<path id="Union" d="M78.1177 30.7035L57.1544 30.7035C55.1441 30.7035 53.5144 29.0739 53.5144 27.0635L53.5144 6.89207L78.1177 30.7035Z" fill="#AD0DEA"/>
</g>
<defs>
<linearGradient id="paint0_linear_24238_9959" x1="13" y1="6.8925" x2="78.52" y2="83.3325" gradientUnits="userSpaceOnUse">
<stop stop-color="#EF61FF"/>
<stop offset="1" stop-color="#BC1CFB"/>
</linearGradient>
</defs>
</svg>
