<svg viewBox="0 0 90 90" width="90" height="90" fill="none" xmlns="http://www.w3.org/2000/svg" aria-hidden="true">
<g id="Group 3438">
<path id="Rectangle 252" d="M13.0001 10.5325C13.0001 8.5222 14.6298 6.89252 16.6401 6.89252H53.9078L78.5201 30.7106V79.6925C78.5201 81.7028 76.8904 83.3325 74.8801 83.3325H16.6401C14.6298 83.3325 13.0001 81.7028 13.0001 79.6925V10.5325Z" fill="url(#paint0_linear_24238_9959)"/>
<rect id="Rectangle 253" opacity="0.1" x="26.4478" y="36.6879" width="37.8277" height="3.64" rx="1.82" fill="white"/>
<rect id="Rectangle 254" opacity="0.1" x="26.4478" y="46.0794" width="37.8277" height="3.64" rx="1.82" fill="white"/>
<rect id="Rectangle 255" opacity="0.1" x="26.6948" y="55.47" width="37.8277" height="3.64" rx="1.82" fill="white"/>
<rect id="Rectangle 256" opacity="0.1" x="26.6948" y="64.8611" width="37.8277" height="3.64" rx="1.82" fill="white"/>
<path id="DOC" d="M31.7874 44.8767C33.7093 44.8913 35.1217 45.3135 36.0244 46.1435C36.9271 46.9588 37.3785 48.2474 37.3785 50.0091C37.3785 50.4605 37.3421 51.0138 37.2693 51.669L36.9417 54.4863C36.6213 56.8596 35.8933 58.585 34.7577 59.6624C33.622 60.7253 31.9549 61.264 29.7563 61.2786H23.0077L25.017 44.8767H31.7874ZM30.0839 58.8762C31.4089 58.8762 32.3989 58.5413 33.0541 57.8715C33.7093 57.2018 34.1316 56.1171 34.3209 54.6174L34.714 51.5379C34.7722 50.9555 34.8013 50.5479 34.8013 50.3149C34.8013 49.252 34.5465 48.4803 34.0369 47.9999C33.5419 47.5194 32.7193 47.2791 31.569 47.2791H27.3102L25.8688 58.8762H30.0839ZM48.5708 44.7894C50.4927 44.8039 51.905 45.2262 52.8077 46.0561C53.7105 46.8715 54.1618 48.16 54.1618 49.9218C54.1618 50.3731 54.1254 50.9264 54.0526 51.5816L53.725 54.5737C53.4047 56.947 52.6767 58.6723 51.541 59.7498C50.4053 60.8127 48.7309 61.3514 46.5178 61.3659H44.9017C42.9797 61.3514 41.5674 60.9364 40.6647 60.1211C39.762 59.3057 39.3106 58.0244 39.3106 56.2772C39.3106 55.8259 39.347 55.258 39.4198 54.5737L39.7474 51.5816C40.0532 49.2083 40.7739 47.4903 41.9096 46.4274C43.0598 45.3499 44.7415 44.8039 46.9546 44.7894H48.5708ZM41.9751 54.7047C41.9169 55.2871 41.8877 55.6948 41.8877 55.9278C41.8877 56.9907 42.1353 57.7623 42.6303 58.2428C43.1399 58.7087 43.9698 58.949 45.1201 58.9635H46.8673C48.1922 58.949 49.175 58.6141 49.8157 57.9589C50.4709 57.2891 50.9004 56.2044 51.1042 54.7047L51.4973 51.4506C51.5556 50.8682 51.5847 50.4605 51.5847 50.2275C51.5847 49.1647 51.3299 48.4003 50.8203 47.9343C50.3253 47.4539 49.5026 47.2063 48.3524 47.1918H46.6052C45.2802 47.2063 44.2901 47.5485 43.6349 48.2183C42.9943 48.8735 42.5721 49.9509 42.3682 51.4506L41.9751 54.7047ZM64.7008 44.8767C65.3123 44.8767 66.1859 44.8913 67.3216 44.9204L68.6757 44.9423L68.3481 47.3665L67.0814 47.3228C65.6254 47.2937 64.7154 47.2791 64.3514 47.2791H63.3904C62.0654 47.2791 61.0754 47.614 60.4202 48.2838C59.7795 48.9535 59.3573 50.0383 59.1534 51.5379L58.7603 54.7047C58.7021 55.2871 58.673 55.6948 58.673 55.9278C58.673 56.9907 58.9205 57.7623 59.4155 58.2428C59.9251 58.7233 60.755 58.9635 61.9053 58.9635H62.9536C63.7253 58.9635 64.9774 58.9126 66.7101 58.8107L67.2561 58.7888L67.0814 61.1912C65.6545 61.3077 64.2058 61.3659 62.7352 61.3659H61.6869C59.765 61.3514 58.3526 60.9364 57.4499 60.1211C56.5472 59.3057 56.0958 58.0244 56.0958 56.2772C56.0958 55.8259 56.1322 55.258 56.205 54.5737L56.5326 51.669C56.8384 49.2957 57.5591 47.5776 58.6948 46.5147C59.845 45.4373 61.5267 44.8913 63.7398 44.8767H64.7008Z" fill="white"/>
<path id="Union" d="M78.1178 30.7036L57.1545 30.7036C55.1442 30.7036 53.5145 29.0739 53.5145 27.0636L53.5145 6.89209L78.1178 30.7036Z" fill="#5C93EA"/>
</g>
<defs>
<linearGradient id="paint0_linear_24238_9959" x1="13.0001" y1="6.89252" x2="78.5201" y2="83.3325" gradientUnits="userSpaceOnUse">
<stop stop-color="#8AE0FF"/>
<stop offset="1" stop-color="#5A91E9"/>
</linearGradient>
</defs>
</svg>
