<svg viewBox="0 0 90 90" width="90" height="90" fill="none" xmlns="http://www.w3.org/2000/svg" aria-hidden="true">
<g id="Group 3438">
<path id="Rectangle 252" d="M13.0001 10.5325C13.0001 8.5222 14.6298 6.89252 16.6401 6.89252H53.9078L78.5201 30.7106V79.6925C78.5201 81.7028 76.8904 83.3325 74.8801 83.3325H16.6401C14.6298 83.3325 13.0001 81.7028 13.0001 79.6925V10.5325Z" fill="url(#paint0_linear_24238_9959)"/>
<rect id="Rectangle 253" opacity="0.1" x="26.4478" y="36.6879" width="37.8277" height="3.64" rx="1.82" fill="white"/>
<rect id="Rectangle 254" opacity="0.1" x="26.4478" y="46.0794" width="37.8277" height="3.64" rx="1.82" fill="white"/>
<rect id="Rectangle 255" opacity="0.1" x="26.6948" y="55.47" width="37.8277" height="3.64" rx="1.82" fill="white"/>
<rect id="Rectangle 256" opacity="0.1" x="26.6948" y="64.8611" width="37.8277" height="3.64" rx="1.82" fill="white"/>
<path id="DOCX" d="M26.2551 45.1921C28.0151 45.2054 29.3084 45.5921 30.1351 46.3521C30.9617 47.0988 31.3751 48.2788 31.3751 49.8921C31.3751 50.3054 31.3417 50.8121 31.2751 51.4121L30.9751 53.9921C30.6817 56.1654 30.0151 57.7454 28.9751 58.7321C27.9351 59.7054 26.4084 60.1988 24.3951 60.2121H18.2151L20.0551 45.1921H26.2551ZM24.6951 58.0121C25.9084 58.0121 26.8151 57.7054 27.4151 57.0921C28.0151 56.4788 28.4017 55.4854 28.5751 54.1121L28.9351 51.2921C28.9884 50.7588 29.0151 50.3854 29.0151 50.1721C29.0151 49.1988 28.7817 48.4921 28.3151 48.0521C27.8617 47.6121 27.1084 47.3921 26.0551 47.3921H22.1551L20.8351 58.0121H24.6951ZM41.6245 45.1121C43.3845 45.1254 44.6778 45.5121 45.5045 46.2721C46.3311 47.0188 46.7445 48.1988 46.7445 49.8121C46.7445 50.2254 46.7111 50.7321 46.6445 51.3321L46.3445 54.0721C46.0511 56.2454 45.3845 57.8254 44.3445 58.8121C43.3045 59.7854 41.7711 60.2788 39.7445 60.2921H38.2645C36.5045 60.2788 35.2111 59.8988 34.3845 59.1521C33.5578 58.4054 33.1445 57.2321 33.1445 55.6321C33.1445 55.2188 33.1778 54.6988 33.2445 54.0721L33.5445 51.3321C33.8245 49.1588 34.4845 47.5854 35.5245 46.6121C36.5778 45.6254 38.1178 45.1254 40.1445 45.1121H41.6245ZM35.5845 54.1921C35.5311 54.7254 35.5045 55.0988 35.5045 55.3121C35.5045 56.2854 35.7311 56.9921 36.1845 57.4321C36.6511 57.8588 37.4111 58.0788 38.4645 58.0921H40.0645C41.2778 58.0788 42.1778 57.7721 42.7645 57.1721C43.3645 56.5588 43.7578 55.5654 43.9445 54.1921L44.3045 51.2121C44.3578 50.6788 44.3845 50.3054 44.3845 50.0921C44.3845 49.1188 44.1511 48.4188 43.6845 47.9921C43.2311 47.5521 42.4778 47.3254 41.4245 47.3121H39.8245C38.6111 47.3254 37.7045 47.6388 37.1045 48.2521C36.5178 48.8521 36.1311 49.8388 35.9445 51.2121L35.5845 54.1921ZM56.3955 45.1921C56.9555 45.1921 57.7555 45.2054 58.7955 45.2321L60.0355 45.2521L59.7355 47.4721L58.5755 47.4321C57.2422 47.4054 56.4089 47.3921 56.0755 47.3921H55.1955C53.9822 47.3921 53.0755 47.6988 52.4755 48.3121C51.8889 48.9254 51.5022 49.9188 51.3155 51.2921L50.9555 54.1921C50.9022 54.7254 50.8755 55.0988 50.8755 55.3121C50.8755 56.2854 51.1022 56.9921 51.5555 57.4321C52.0222 57.8721 52.7822 58.0921 53.8355 58.0921H54.7955C55.5022 58.0921 56.6489 58.0454 58.2355 57.9521L58.7355 57.9321L58.5755 60.1321C57.2689 60.2388 55.9422 60.2921 54.5955 60.2921H53.6355C51.8755 60.2788 50.5822 59.8988 49.7555 59.1521C48.9289 58.4054 48.5155 57.2321 48.5155 55.6321C48.5155 55.2188 48.5489 54.6988 48.6155 54.0721L48.9155 51.4121C49.1955 49.2388 49.8555 47.6654 50.8955 46.6921C51.9489 45.7054 53.4889 45.2054 55.5155 45.1921H56.3955ZM62.6499 60.2121H59.7099L66.1899 52.5121L61.9699 45.1921H64.7499L67.8699 50.7521L72.2899 45.1921H75.1499L69.0499 52.6721L73.5299 60.2121H70.7099L67.3899 54.4321L62.6499 60.2121Z" fill="white"/>
<path id="Union" d="M78.1178 30.7036L57.1545 30.7036C55.1442 30.7036 53.5145 29.0739 53.5145 27.0636L53.5145 6.89209L78.1178 30.7036Z" fill="#5C93EA"/>
</g>
<defs>
<linearGradient id="paint0_linear_24238_9959" x1="13.0001" y1="6.89252" x2="78.5201" y2="83.3325" gradientUnits="userSpaceOnUse">
<stop stop-color="#8AE0FF"/>
<stop offset="1" stop-color="#5A91E9"/>
</linearGradient>
</defs>
</svg>
