<svg viewBox="0 0 90 90" width="90" height="90" fill="none" xmlns="http://www.w3.org/2000/svg" aria-hidden="true">
<g id="Group 3438">
<path id="Rectangle 252" d="M13.0001 10.5325C13.0001 8.5222 14.6298 6.89252 16.6401 6.89252H53.9078L78.5201 30.7106V79.6925C78.5201 81.7028 76.8904 83.3325 74.8801 83.3325H16.6401C14.6298 83.3325 13.0001 81.7028 13.0001 79.6925V10.5325Z" fill="url(#paint0_linear_24238_9959)"/>
<rect id="Rectangle 253" opacity="0.1" x="26.4478" y="36.6879" width="37.8277" height="3.64" rx="1.82" fill="white"/>
<rect id="Rectangle 254" opacity="0.1" x="26.4478" y="46.0794" width="37.8277" height="3.64" rx="1.82" fill="white"/>
<rect id="Rectangle 255" opacity="0.1" x="26.6948" y="55.47" width="37.8277" height="3.64" rx="1.82" fill="white"/>
<rect id="Rectangle 256" opacity="0.1" x="26.6948" y="64.8611" width="37.8277" height="3.64" rx="1.82" fill="white"/>
<path id="HTML" d="M19.7133 44.6999H22.0733L21.3133 50.9199H28.5533L29.3133 44.6999H31.6733L29.8333 59.7199H27.4733L28.2733 53.1199H21.0333L20.2333 59.7199H17.8733L19.7133 44.6999ZM33.2952 46.8999L33.5552 44.6999H45.4152L45.1552 46.8999H40.3352L38.7952 59.7199H36.4352L37.9752 46.8999H33.2952ZM49.9109 44.6999L53.2109 56.9799H53.2909L59.6309 44.6999H62.2309L60.3909 59.7199H58.2309L59.5309 49.1199L54.3509 59.0999C54.1376 59.5132 53.8043 59.7199 53.3509 59.7199H52.5309C52.0643 59.7199 51.7843 59.5132 51.6909 59.0999L48.9309 49.1199L47.6309 59.7199H45.4709L47.3109 44.6999H49.9109ZM65.182 44.6999H67.542L65.962 57.5199H73.762L73.502 59.7199H63.342L65.182 44.6999Z" fill="white"/>
<path id="Union" d="M78.1178 30.7036L57.1545 30.7036C55.1442 30.7036 53.5145 29.0739 53.5145 27.0636L53.5145 6.89209L78.1178 30.7036Z" fill="#FC4C9E"/>
</g>
<defs>
<linearGradient id="paint0_linear_24238_9959" x1="13.0001" y1="6.89252" x2="78.5201" y2="83.3325" gradientUnits="userSpaceOnUse">
<stop stop-color="#FF9BCB"/>
<stop offset="1" stop-color="#FB469A"/>
</linearGradient>
</defs>
</svg>
