<svg viewBox="0 0 90 90" width="90" height="90" fill="none" xmlns="http://www.w3.org/2000/svg" aria-hidden="true">
<g id="Group 3438">
<path id="Rectangle 252" d="M13.0001 10.5325C13.0001 8.5222 14.6298 6.89252 16.6401 6.89252H53.9078L78.5201 30.7106V79.6925C78.5201 81.7028 76.8904 83.3325 74.8801 83.3325H16.6401C14.6298 83.3325 13.0001 81.7028 13.0001 79.6925V10.5325Z" fill="url(#paint0_linear_24238_9959)"/>
<rect id="Rectangle 253" opacity="0.1" x="26.4478" y="36.6879" width="37.8277" height="3.64" rx="1.82" fill="white"/>
<rect id="Rectangle 254" opacity="0.1" x="26.4478" y="46.0794" width="37.8277" height="3.64" rx="1.82" fill="white"/>
<rect id="Rectangle 255" opacity="0.1" x="26.6948" y="55.47" width="37.8277" height="3.64" rx="1.82" fill="white"/>
<rect id="Rectangle 256" opacity="0.1" x="26.6948" y="64.8611" width="37.8277" height="3.64" rx="1.82" fill="white"/>
<path id="JPEG" d="M21.7134 57.4199C22.7268 57.4466 23.4534 57.4599 23.8934 57.4599C24.5334 57.4599 25.0601 57.3732 25.4734 57.1999C25.9001 57.0266 26.2401 56.7132 26.4934 56.2599C26.7601 55.8066 26.9468 55.1599 27.0534 54.3199L28.2334 44.6999H30.5934L29.4134 54.3799C29.2401 55.7532 28.9334 56.8266 28.4934 57.5999C28.0534 58.3732 27.4468 58.9199 26.6734 59.2399C25.9001 59.5599 24.8868 59.7199 23.6334 59.7199C22.9001 59.7199 22.1734 59.6999 21.4534 59.6599L21.7134 57.4199ZM39.9423 44.6999C41.329 44.7132 42.3957 45.0466 43.1423 45.6999C43.9023 46.3399 44.2823 47.2666 44.2823 48.4799C44.2823 48.8132 44.269 49.0732 44.2423 49.2599L44.1223 50.2799C43.9357 51.7466 43.3757 52.8732 42.4423 53.6599C41.509 54.4332 40.2623 54.8266 38.7023 54.8399H34.6223L34.0223 59.7199H31.6623L33.5023 44.6999H39.9423ZM39.0223 52.6399C39.849 52.6266 40.4823 52.4466 40.9223 52.0999C41.3623 51.7399 41.6357 51.1732 41.7423 50.3999L41.9023 49.1799C41.9157 49.0866 41.9223 48.9599 41.9223 48.7999C41.9223 48.1466 41.7423 47.6732 41.3823 47.3799C41.0357 47.0732 40.489 46.9132 39.7423 46.8999H35.6023L34.8823 52.6399H39.0223ZM47.057 44.6999H56.737L56.477 46.8599H49.157L48.637 51.0399H55.037L54.777 53.1799H48.377L47.837 57.5399H55.337L55.077 59.7199H45.217L47.057 44.6999ZM64.4459 57.5999C65.1126 57.5999 65.8793 57.5532 66.7459 57.4599L67.2459 53.4999H63.6859L63.9459 51.2999H69.8659L68.8659 59.4599C67.1059 59.6866 65.5593 59.7999 64.2259 59.7999H63.1859C61.2526 59.7866 59.8459 59.4066 58.9659 58.6599C58.0993 57.9132 57.6659 56.7332 57.6659 55.1199C57.6659 54.7199 57.6993 54.2066 57.7659 53.5799L58.0659 50.9199C58.2526 49.4532 58.6126 48.2666 59.1459 47.3599C59.6793 46.4532 60.4326 45.7866 61.4059 45.3599C62.3793 44.9332 63.6193 44.7132 65.1259 44.6999H65.6659C67.2793 44.6999 68.8193 44.7199 70.2859 44.7599L70.0059 46.9799L68.3459 46.9399C66.9326 46.9132 65.9526 46.8999 65.4059 46.8999H64.8059C63.8326 46.8999 63.0526 47.0399 62.4659 47.3199C61.8793 47.5866 61.4259 47.9999 61.1059 48.5599C60.7993 49.1199 60.5859 49.8666 60.4659 50.7999L60.1059 53.6999C60.0526 54.2332 60.0259 54.5932 60.0259 54.7799C60.0259 55.7799 60.2793 56.4999 60.7859 56.9399C61.3059 57.3666 62.1926 57.5866 63.4459 57.5999H64.4459Z" fill="white"/>
<path id="Union" d="M78.1178 30.7036L57.1545 30.7036C55.1442 30.7036 53.5145 29.0739 53.5145 27.0636L53.5145 6.89209L78.1178 30.7036Z" fill="#EB9400"/>
</g>
<defs>
<linearGradient id="paint0_linear_24238_9959" x1="13.0001" y1="6.89252" x2="78.5201" y2="83.3325" gradientUnits="userSpaceOnUse">
<stop stop-color="#F5B23E"/>
<stop offset="1" stop-color="#EE9B0C"/>
</linearGradient>
</defs>
</svg>
