<svg viewBox="0 0 90 90" width="90" height="90" fill="none" xmlns="http://www.w3.org/2000/svg" aria-hidden="true">
<g id="Group 3438">
<path id="Rectangle 252" d="M13.0001 10.5325C13.0001 8.5222 14.6298 6.89252 16.6401 6.89252H53.9078L78.5201 30.7106V79.6925C78.5201 81.7028 76.8904 83.3325 74.8801 83.3325H16.6401C14.6298 83.3325 13.0001 81.7028 13.0001 79.6925V10.5325Z" fill="url(#paint0_linear_24238_9959)"/>
<rect id="Rectangle 253" opacity="0.1" x="26.4478" y="36.6879" width="37.8277" height="3.64" rx="1.82" fill="white"/>
<rect id="Rectangle 254" opacity="0.1" x="26.4478" y="46.0794" width="37.8277" height="3.64" rx="1.82" fill="white"/>
<rect id="Rectangle 255" opacity="0.1" x="26.6948" y="55.47" width="37.8277" height="3.64" rx="1.82" fill="white"/>
<rect id="Rectangle 256" opacity="0.1" x="26.6948" y="64.8611" width="37.8277" height="3.64" rx="1.82" fill="white"/>
<path id="JPG" d="M25.6016 58.2748C26.7081 58.3039 27.5017 58.3185 27.9821 58.3185C28.681 58.3185 29.2561 58.2238 29.7075 58.0346C30.1734 57.8453 30.5447 57.5031 30.8213 57.0081C31.1125 56.513 31.3164 55.8069 31.4329 54.8896L32.7214 44.3846H35.2985L34.01 54.9551C33.8207 56.4548 33.4858 57.6269 33.0053 58.4714C32.5249 59.3158 31.8624 59.9128 31.0179 60.2622C30.1734 60.6117 29.0669 60.7864 27.6982 60.7864C26.8974 60.7864 26.1039 60.7646 25.3177 60.7209L25.6016 58.2748ZM45.5075 44.3846C47.0218 44.3991 48.1866 44.7631 49.0019 45.4766C49.8319 46.1754 50.2468 47.1874 50.2468 48.5123C50.2468 48.8763 50.2323 49.1602 50.2031 49.3641L50.0721 50.4779C49.8683 52.0795 49.2567 53.3098 48.2375 54.1689C47.2183 55.0134 45.857 55.4429 44.1535 55.4574H39.6981L39.0429 60.7864H36.4658L38.4751 44.3846H45.5075ZM44.5029 53.055C45.4056 53.0405 46.0972 52.8439 46.5777 52.4654C47.0582 52.0722 47.3567 51.4534 47.4731 50.609L47.6479 49.2767C47.6624 49.1748 47.6697 49.0365 47.6697 48.8618C47.6697 48.1483 47.4731 47.6314 47.08 47.3111C46.7015 46.9762 46.1045 46.8015 45.2891 46.787H40.7683L39.982 53.055H44.5029ZM59.0207 58.4714C59.7487 58.4714 60.5859 58.4204 61.5323 58.3185L62.0783 53.9942H58.1908L58.4747 51.5918H64.9393L63.8473 60.5025C61.9254 60.75 60.2365 60.8738 58.7805 60.8738H57.6448C55.5336 60.8592 53.9975 60.4442 53.0365 59.6289C52.0901 58.8135 51.6169 57.525 51.6169 55.7632C51.6169 55.3264 51.6533 54.7658 51.7261 54.0815L52.0537 51.1768C52.2576 49.5752 52.6507 48.2794 53.2331 47.2893C53.8155 46.2992 54.6381 45.5712 55.701 45.1053C56.7639 44.6394 58.118 44.3991 59.7633 44.3846H60.3529C62.1147 44.3846 63.7964 44.4064 65.398 44.4501L65.0922 46.8743L63.2795 46.8306C61.7361 46.8015 60.666 46.787 60.069 46.787H59.4138C58.3509 46.787 57.4992 46.9398 56.8585 47.2456C56.2179 47.5368 55.7229 47.9882 55.3734 48.5997C55.0385 49.2112 54.8056 50.0266 54.6745 51.0458L54.2814 54.2126C54.2232 54.795 54.1941 55.1881 54.1941 55.3919C54.1941 56.4839 54.4707 57.2702 55.024 57.7506C55.5918 58.2166 56.5601 58.4568 57.9287 58.4714H59.0207Z" fill="white"/>
<path id="Union" d="M78.1178 30.7036L57.1545 30.7036C55.1442 30.7036 53.5145 29.0739 53.5145 27.0636L53.5145 6.89209L78.1178 30.7036Z" fill="#EB9400"/>
</g>
<defs>
<linearGradient id="paint0_linear_24238_9959" x1="13.0001" y1="6.89252" x2="78.5201" y2="83.3325" gradientUnits="userSpaceOnUse">
<stop stop-color="#F5B23E"/>
<stop offset="1" stop-color="#EE9B0C"/>
</linearGradient>
</defs>
</svg>
