<svg viewBox="0 0 90 90" width="90" height="90" fill="none" xmlns="http://www.w3.org/2000/svg" aria-hidden="true">
<g id="Group 3438">
<path id="Rectangle 252" d="M13 10.5325C13 8.5222 14.6297 6.89252 16.64 6.89252H53.9077L78.52 30.7106V79.6925C78.52 81.7028 76.8903 83.3325 74.88 83.3325H16.64C14.6297 83.3325 13 81.7028 13 79.6925V10.5325Z" fill="url(#paint0_linear_24238_9959)"/>
<rect id="Rectangle 253" opacity="0.1" x="26.4478" y="36.6879" width="37.8277" height="3.64" rx="1.82" fill="white"/>
<rect id="Rectangle 254" opacity="0.1" x="26.4478" y="46.0794" width="37.8277" height="3.64" rx="1.82" fill="white"/>
<rect id="Rectangle 255" opacity="0.1" x="26.6948" y="55.47" width="37.8277" height="3.64" rx="1.82" fill="white"/>
<rect id="Rectangle 256" opacity="0.1" x="26.6948" y="64.8611" width="37.8277" height="3.64" rx="1.82" fill="white"/>
<path id="OFD" d="M33.5225 44.7892C35.4444 44.8038 36.8567 45.226 37.7594 46.0559C38.6621 46.8713 39.1135 48.1599 39.1135 49.9216C39.1135 50.373 39.0771 50.9263 39.0043 51.5815L38.6767 54.5735C38.3564 56.9468 37.6284 58.6722 36.4927 59.7496C35.357 60.8125 33.6826 61.3512 31.4695 61.3658H29.8533C27.9314 61.3512 26.5191 60.9363 25.6164 60.1209C24.7136 59.3055 24.2623 58.0243 24.2623 56.2771C24.2623 55.8257 24.2987 55.2579 24.3715 54.5735L24.6991 51.5815C25.0048 49.2082 25.7256 47.4901 26.8612 46.4272C28.0115 45.3498 29.6932 44.8038 31.9063 44.7892H33.5225ZM26.9268 54.7046C26.8685 55.287 26.8394 55.6947 26.8394 55.9276C26.8394 56.9905 27.0869 57.7622 27.582 58.2427C28.0916 58.7086 28.9215 58.9488 30.0717 58.9634H31.8189C33.1439 58.9488 34.1267 58.6139 34.7673 57.9587C35.4225 57.289 35.8521 56.2043 36.0559 54.7046L36.449 51.4504C36.5073 50.868 36.5364 50.4603 36.5364 50.2274C36.5364 49.1645 36.2816 48.4001 35.772 47.9342C35.2769 47.4537 34.4543 47.2062 33.3041 47.1916H31.5568C30.2319 47.2062 29.2418 47.5483 28.5866 48.2181C27.946 48.8733 27.5237 49.9507 27.3199 51.4504L26.9268 54.7046ZM42.7074 44.8766H53.4526L53.1687 47.279H45.0006L44.389 52.1493H51.7928L51.5089 54.5517H44.1051L43.2752 61.2784H40.6981L42.7074 44.8766ZM62.5732 44.8766C64.4952 44.8911 65.9075 45.3134 66.8102 46.1433C67.7129 46.9587 68.1643 48.2472 68.1643 50.009C68.1643 50.4603 68.1279 51.0136 68.0551 51.6688L67.7275 54.4862C67.4072 56.8595 66.6792 58.5848 65.5435 59.6623C64.4078 60.7251 62.7407 61.2639 60.5421 61.2784H53.7936L55.8028 44.8766H62.5732ZM60.8697 58.876C62.1947 58.876 63.1848 58.5411 63.84 57.8714C64.4952 57.2016 64.9174 56.1169 65.1067 54.6172L65.4998 51.5378C65.558 50.9554 65.5872 50.5477 65.5872 50.3147C65.5872 49.2519 65.3324 48.4802 64.8228 47.9997C64.3277 47.5192 63.5051 47.279 62.3548 47.279H58.096L56.6546 58.876H60.8697Z" fill="white"/>
<path id="Union" d="M78.1177 30.7036L57.1544 30.7036C55.1441 30.7036 53.5144 29.0739 53.5144 27.0636L53.5144 6.89209L78.1177 30.7036Z" fill="#13A4AC"/>
</g>
<defs>
<linearGradient id="paint0_linear_24238_9959" x1="13" y1="6.89252" x2="78.52" y2="83.3325" gradientUnits="userSpaceOnUse">
<stop stop-color="#25CEDD"/>
<stop offset="1" stop-color="#11A2A9"/>
</linearGradient>
</defs>
</svg>
