<svg viewBox="0 0 90 90" width="90" height="90" fill="none" xmlns="http://www.w3.org/2000/svg" aria-hidden="true">
<g id="Group 3438">
<path id="Rectangle 252" d="M12.9578 10.5325C12.9578 8.5222 14.5874 6.89252 16.5978 6.89252H53.8655L78.4778 30.7106V79.6925C78.4778 81.7028 76.8481 83.3325 74.8378 83.3325H16.5978C14.5874 83.3325 12.9578 81.7028 12.9578 79.6925V10.5325Z" fill="url(#paint0_linear_24238_9959)"/>
<rect id="Rectangle 253" opacity="0.1" x="26.4478" y="36.6879" width="37.8277" height="3.64" rx="1.82" fill="white"/>
<rect id="Rectangle 254" opacity="0.1" x="26.4478" y="46.0794" width="37.8277" height="3.64" rx="1.82" fill="white"/>
<rect id="Rectangle 255" opacity="0.1" x="26.6948" y="55.47" width="37.8277" height="3.64" rx="1.82" fill="white"/>
<rect id="Rectangle 256" opacity="0.1" x="26.6948" y="64.8611" width="37.8277" height="3.64" rx="1.82" fill="white"/>
<path id="PDF" d="M33.9041 44.8766C35.4184 44.8911 36.5832 45.2551 37.3985 45.9686C38.2285 46.6675 38.6434 47.6794 38.6434 49.0043C38.6434 49.3683 38.6289 49.6523 38.5997 49.8561L38.4687 50.9699C38.2649 52.5715 37.6533 53.8019 36.6341 54.6609C35.6149 55.5054 34.2536 55.9349 32.5501 55.9495H28.0947L27.4395 61.2784H24.8624L26.8717 44.8766H33.9041ZM32.8995 53.5471C33.8022 53.5325 34.4938 53.3359 34.9743 52.9574C35.4548 52.5643 35.7533 51.9455 35.8697 51.101L36.0445 49.7687C36.059 49.6668 36.0663 49.5285 36.0663 49.3538C36.0663 48.6403 35.8697 48.1235 35.4766 47.8031C35.0981 47.4683 34.5011 47.2935 33.6857 47.279H29.1649L28.3786 53.5471H32.8995ZM48.4438 44.8766C50.3657 44.8911 51.778 45.3134 52.6807 46.1433C53.5835 46.9587 54.0348 48.2472 54.0348 50.009C54.0348 50.4603 53.9984 51.0136 53.9256 51.6688L53.598 54.4862C53.2777 56.8595 52.5497 58.5848 51.414 59.6623C50.2783 60.7251 48.6112 61.2639 46.4127 61.2784H39.6641L41.6734 44.8766H48.4438ZM46.7403 58.876C48.0652 58.876 49.0553 58.5411 49.7105 57.8714C50.3657 57.2016 50.7879 56.1169 50.9772 54.6172L51.3703 51.5378C51.4286 50.9554 51.4577 50.5477 51.4577 50.3147C51.4577 49.2519 51.2029 48.4802 50.6933 47.9997C50.1983 47.5192 49.3756 47.279 48.2254 47.279H43.9666L42.5251 58.876H46.7403ZM57.6268 44.8766H68.3721L68.0882 47.279H59.92L59.3085 52.1493H66.7122L66.4283 54.5517H59.0246L58.1946 61.2784H55.6175L57.6268 44.8766Z" fill="white"/>
<path id="Union" d="M78.1177 30.7036L57.1544 30.7036C55.1441 30.7036 53.5144 29.0739 53.5144 27.0636L53.5144 6.89209L78.1177 30.7036Z" fill="#DC4C5A"/>
</g>
<defs>
<linearGradient id="paint0_linear_24238_9959" x1="12.9578" y1="6.89252" x2="78.4778" y2="83.3325" gradientUnits="userSpaceOnUse">
<stop stop-color="#FF8A8F"/>
<stop offset="1" stop-color="#E95A6A"/>
</linearGradient>
</defs>
</svg>
