<svg viewBox="0 0 90 90" width="90" height="90" fill="none" xmlns="http://www.w3.org/2000/svg" aria-hidden="true">
<g id="Group 3438">
<path id="Rectangle 252" d="M13 10.5325C13 8.5222 14.6297 6.89252 16.64 6.89252H53.9077L78.52 30.7106V79.6925C78.52 81.7028 76.8903 83.3325 74.88 83.3325H16.64C14.6297 83.3325 13 81.7028 13 79.6925V10.5325Z" fill="url(#paint0_linear_24238_9959)"/>
<rect id="Rectangle 253" opacity="0.1" x="26.4478" y="36.6879" width="37.8277" height="3.64" rx="1.82" fill="white"/>
<rect id="Rectangle 254" opacity="0.1" x="26.4478" y="46.0794" width="37.8277" height="3.64" rx="1.82" fill="white"/>
<rect id="Rectangle 255" opacity="0.1" x="26.6948" y="55.47" width="37.8277" height="3.64" rx="1.82" fill="white"/>
<rect id="Rectangle 256" opacity="0.1" x="26.6948" y="64.8611" width="37.8277" height="3.64" rx="1.82" fill="white"/>
<path id="PNG" d="M32.06 44.4744C33.5743 44.489 34.7391 44.853 35.5544 45.5664C36.3844 46.2653 36.7993 47.2772 36.7993 48.6022C36.7993 48.9662 36.7848 49.2501 36.7556 49.4539L36.6246 50.5678C36.4208 52.1694 35.8092 53.3997 34.79 54.2587C33.7708 55.1032 32.4095 55.5327 30.706 55.5473H26.2506L25.5954 60.8762H23.0183L25.0276 44.4744H32.06ZM31.0554 53.1449C31.9581 53.1303 32.6497 52.9338 33.1302 52.5552C33.6107 52.1621 33.9092 51.5433 34.0256 50.6988L34.2004 49.3666C34.2149 49.2646 34.2222 49.1263 34.2222 48.9516C34.2222 48.2382 34.0256 47.7213 33.6325 47.401C33.254 47.0661 32.657 46.8914 31.8416 46.8768H27.3208L26.5345 53.1449H31.0554ZM39.8293 44.4744H42.2972L48.8929 56.5519L49.0021 56.7485L50.509 44.4744H52.977L50.9677 60.8762H48.4998L41.8822 48.8424L41.7949 48.6458L40.2879 60.8762H37.82L39.8293 44.4744ZM61.9532 58.5612C62.6812 58.5612 63.5184 58.5102 64.4648 58.4083L65.0108 54.084H61.1233L61.4072 51.6816H67.8718L66.7798 60.5923C64.8579 60.8398 63.169 60.9636 61.713 60.9636H60.5773C58.4661 60.949 56.93 60.5341 55.969 59.7187C55.0226 58.9034 54.5494 57.6148 54.5494 55.853C54.5494 55.4162 54.5858 54.8557 54.6586 54.1714L54.9862 51.2666C55.1901 49.665 55.5832 48.3692 56.1656 47.3791C56.748 46.389 57.5706 45.661 58.6335 45.1951C59.6964 44.7292 61.0505 44.489 62.6958 44.4744H63.2854C65.0472 44.4744 66.7289 44.4962 68.3305 44.5399L68.0247 46.9642L66.212 46.9205C64.6686 46.8914 63.5985 46.8768 63.0015 46.8768H62.3463C61.2834 46.8768 60.4317 47.0297 59.791 47.3354C59.1504 47.6266 58.6554 48.078 58.3059 48.6895C57.971 49.301 57.7381 50.1164 57.607 51.1356L57.2139 54.3024C57.1557 54.8848 57.1266 55.2779 57.1266 55.4818C57.1266 56.5738 57.4032 57.36 57.9565 57.8405C58.5243 58.3064 59.4926 58.5466 60.8612 58.5612H61.9532Z" fill="white"/>
<path id="Union" d="M78.1177 30.7036L57.1544 30.7036C55.1441 30.7036 53.5144 29.0739 53.5144 27.0636L53.5144 6.89209L78.1177 30.7036Z" fill="#6071EB"/>
</g>
<defs>
<linearGradient id="paint0_linear_24238_9959" x1="13" y1="6.89252" x2="78.52" y2="83.3325" gradientUnits="userSpaceOnUse">
<stop stop-color="#8AA1FF"/>
<stop offset="1" stop-color="#5A6BE9"/>
</linearGradient>
</defs>
</svg>
