<svg viewBox="0 0 90 90" width="90" height="90" fill="none" xmlns="http://www.w3.org/2000/svg" aria-hidden="true">
<g id="Group 3438">
<path id="Rectangle 252" d="M13 10.5325C13 8.5222 14.6297 6.89252 16.64 6.89252H53.9077L78.52 30.7106V79.6925C78.52 81.7028 76.8903 83.3325 74.88 83.3325H16.64C14.6297 83.3325 13 81.7028 13 79.6925V10.5325Z" fill="url(#paint0_linear_24238_9959)"/>
<rect id="Rectangle 253" opacity="0.1" x="26.4478" y="36.6879" width="37.8277" height="3.64" rx="1.82" fill="white"/>
<rect id="Rectangle 254" opacity="0.1" x="26.4478" y="46.0794" width="37.8277" height="3.64" rx="1.82" fill="white"/>
<rect id="Rectangle 255" opacity="0.1" x="26.6948" y="55.47" width="37.8277" height="3.64" rx="1.82" fill="white"/>
<rect id="Rectangle 256" opacity="0.1" x="26.6948" y="64.8611" width="37.8277" height="3.64" rx="1.82" fill="white"/>
<path id="PPT" d="M34.149 44.8766C35.6632 44.8911 36.828 45.2551 37.6434 45.9686C38.4733 46.6675 38.8883 47.6794 38.8883 49.0043C38.8883 49.3683 38.8737 49.6523 38.8446 49.8561L38.7135 50.9699C38.5097 52.5715 37.8982 53.8019 36.879 54.6609C35.8598 55.5054 34.4984 55.9349 32.7949 55.9495H28.3395L27.6843 61.2784H25.1072L27.1165 44.8766H34.149ZM33.1443 53.5471C34.0471 53.5325 34.7387 53.3359 35.2191 52.9574C35.6996 52.5643 35.9981 51.9455 36.1146 51.101L36.2893 49.7687C36.3039 49.6668 36.3111 49.5285 36.3111 49.3538C36.3111 48.6403 36.1146 48.1235 35.7215 47.8031C35.3429 47.4683 34.7459 47.2935 33.9306 47.279H29.4097L28.6235 53.5471H33.1443ZM48.9507 44.8766C50.4649 44.8911 51.6297 45.2551 52.4451 45.9686C53.275 46.6675 53.69 47.6794 53.69 49.0043C53.69 49.3683 53.6754 49.6523 53.6463 49.8561L53.5153 50.9699C53.3114 52.5715 52.6999 53.8019 51.6807 54.6609C50.6615 55.5054 49.3001 55.9349 47.5966 55.9495H43.1413L42.4861 61.2784H39.9089L41.9182 44.8766H48.9507ZM47.9461 53.5471C48.8488 53.5325 49.5404 53.3359 50.0209 52.9574C50.5013 52.5643 50.7998 51.9455 50.9163 51.101L51.091 49.7687C51.1056 49.6668 51.1129 49.5285 51.1129 49.3538C51.1129 48.6403 50.9163 48.1235 50.5232 47.8031C50.1446 47.4683 49.5477 47.2935 48.7323 47.279H44.2114L43.4252 53.5471H47.9461ZM55.2567 47.279L55.5406 44.8766H68.4917L68.2078 47.279H62.9443L61.2627 61.2784H58.6855L60.3672 47.279H55.2567Z" fill="white"/>
<path id="Union" d="M78.1177 30.7036L57.1544 30.7036C55.1441 30.7036 53.5144 29.0739 53.5144 27.0636L53.5144 6.89209L78.1177 30.7036Z" fill="#F5571E"/>
</g>
<defs>
<linearGradient id="paint0_linear_24238_9959" x1="13" y1="6.89252" x2="78.52" y2="83.3325" gradientUnits="userSpaceOnUse">
<stop stop-color="#FFA07A"/>
<stop offset="1" stop-color="#E94308"/>
</linearGradient>
</defs>
</svg>
