<svg viewBox="0 0 90 90" width="90" height="90" fill="none" xmlns="http://www.w3.org/2000/svg" aria-hidden="true">
<g id="Group 3438">
<path id="Rectangle 252" d="M13.0001 10.5325C13.0001 8.52219 14.6298 6.8925 16.6401 6.8925H53.9078L78.5201 30.7105V79.6925C78.5201 81.7028 76.8904 83.3325 74.8801 83.3325H16.6401C14.6298 83.3325 13.0001 81.7028 13.0001 79.6925V10.5325Z" fill="url(#paint0_linear_24238_9959)"/>
<rect id="Rectangle 253" opacity="0.1" x="26.4478" y="36.6879" width="37.8277" height="3.64" rx="1.82" fill="white"/>
<rect id="Rectangle 254" opacity="0.1" x="26.4478" y="46.0794" width="37.8277" height="3.64" rx="1.82" fill="white"/>
<rect id="Rectangle 255" opacity="0.1" x="26.6948" y="55.47" width="37.8277" height="3.64" rx="1.82" fill="white"/>
<rect id="Rectangle 256" opacity="0.1" x="26.6948" y="64.861" width="37.8277" height="3.64" rx="1.82" fill="white"/>
<path id="TIFF" d="M26.2737 46.8999L26.5337 44.6999H38.3937L38.1337 46.8999H33.3137L31.7737 59.7199H29.4137L30.9537 46.8999H26.2737ZM40.2895 44.6999H42.6495L40.8095 59.7199H38.4495L40.2895 44.6999ZM45.602 44.6999H55.442L55.182 46.8999H47.702L47.142 51.3599H53.922L53.662 53.5599H46.882L46.122 59.7199H43.762L45.602 44.6999ZM57.5941 44.6999H67.4341L67.1741 46.8999H59.6941L59.1341 51.3599H65.9141L65.6541 53.5599H58.8741L58.1141 59.7199H55.7541L57.5941 44.6999Z" fill="white"/>
<path id="Union" d="M78.1178 30.7035L57.1545 30.7035C55.1442 30.7035 53.5145 29.0739 53.5145 27.0635L53.5145 6.89207L78.1178 30.7035Z" fill="#53576B"/>
</g>
<defs>
<linearGradient id="paint0_linear_24238_9959" x1="13.0001" y1="6.8925" x2="78.5201" y2="83.3325" gradientUnits="userSpaceOnUse">
<stop stop-color="#9EA9C2"/>
<stop offset="1" stop-color="#484B5E"/>
</linearGradient>
</defs>
</svg>
