<svg viewBox="0 0 90 90" width="90" height="90" fill="none" xmlns="http://www.w3.org/2000/svg" aria-hidden="true">
<g id="Group 3438">
<path id="Rectangle 252" d="M13.0001 10.5325C13.0001 8.5222 14.6298 6.89252 16.6401 6.89252H53.9078L78.5201 30.7106V79.6925C78.5201 81.7028 76.8904 83.3325 74.8801 83.3325H16.6401C14.6298 83.3325 13.0001 81.7028 13.0001 79.6925V10.5325Z" fill="url(#paint0_linear_24238_9959)"/>
<rect id="Rectangle 253" opacity="0.1" x="26.4478" y="36.6879" width="37.8277" height="3.64" rx="1.82" fill="white"/>
<rect id="Rectangle 254" opacity="0.1" x="26.4478" y="46.0794" width="37.8277" height="3.64" rx="1.82" fill="white"/>
<rect id="Rectangle 255" opacity="0.1" x="26.6948" y="55.47" width="37.8277" height="3.64" rx="1.82" fill="white"/>
<rect id="Rectangle 256" opacity="0.1" x="26.6948" y="64.8611" width="37.8277" height="3.64" rx="1.82" fill="white"/>
<path id="WPS" d="M24.5872 61.2786C24.2232 61.2786 23.9175 61.1621 23.6699 60.9291C23.437 60.7107 23.2914 60.3613 23.2331 59.8808L21.6388 44.8767H24.3688L25.7447 58.8762H26.3344L31.0082 46.209H34.4589L36.0095 58.898H36.5992L41.4259 44.8986H44.2432L38.9143 60.0992C38.6376 60.8709 38.1499 61.2713 37.451 61.3004H34.8739C34.5099 61.3004 34.2041 61.1839 33.9566 60.951C33.7236 60.7326 33.578 60.3831 33.5198 59.9027L32.3841 49.5505L28.6276 60.0774C28.3364 60.8782 27.8268 61.2786 27.0988 61.2786H24.5872ZM53.2497 44.8767C54.7639 44.8913 55.9287 45.2553 56.7441 45.9687C57.574 46.6676 57.9889 47.6795 57.9889 49.0045C57.9889 49.3685 57.9744 49.6524 57.9453 49.8563L57.8142 50.9701C57.6104 52.5717 56.9989 53.802 55.9797 54.6611C54.9605 55.5055 53.5991 55.9351 51.8956 55.9496H47.4402L46.785 61.2786H44.2079L46.2172 44.8767H53.2497ZM52.245 53.5472C53.1477 53.5327 53.8393 53.3361 54.3198 52.9575C54.8003 52.5644 55.0988 51.9456 55.2153 51.1011L55.39 49.7689C55.4045 49.667 55.4118 49.5287 55.4118 49.3539C55.4118 48.6405 55.2153 48.1236 54.8221 47.8033C54.4436 47.4684 53.8466 47.2937 53.0313 47.2791H48.5104L47.7241 53.5472H52.245ZM63.0063 61.3659C61.099 61.3659 59.5265 61.2713 58.2889 61.082L58.5947 58.6359C60.371 58.8543 61.9362 58.9635 63.2903 58.9635H63.5742C64.4915 58.9635 65.2122 58.8762 65.7363 58.7015C66.2751 58.5267 66.6609 58.2719 66.8939 57.9371C67.1268 57.6022 67.2724 57.1727 67.3307 56.6485C67.3598 56.3864 67.3743 56.2044 67.3743 56.1025C67.3743 55.5929 67.2579 55.2071 67.0249 54.945C66.7919 54.6829 66.4425 54.5009 65.9766 54.399C65.5252 54.2825 64.8409 54.166 63.9236 54.0495C62.8753 53.9331 62.0454 53.7511 61.4339 53.5035C60.8223 53.256 60.3637 52.8993 60.0579 52.4334C59.7667 51.9529 59.6211 51.3123 59.6211 50.5115C59.6211 50.1911 59.643 49.8344 59.6867 49.4413C59.8759 47.796 60.4292 46.6239 61.3465 45.9251C62.2638 45.2262 63.6688 44.8767 65.5616 44.8767H67.0904C68.197 44.8767 69.42 44.8913 70.7595 44.9204L70.4756 47.3228C69.7039 47.3228 69.1143 47.3155 68.7066 47.301L66.8065 47.2791H65.2777C64.2148 47.2791 63.4359 47.4684 62.9408 47.847C62.4603 48.211 62.2201 48.9099 62.2201 49.9436C62.2201 50.395 62.3075 50.7371 62.4822 50.9701C62.6569 51.1885 62.8971 51.3414 63.2029 51.4287C63.5087 51.5161 64.0037 51.6107 64.688 51.7127C64.8191 51.7272 65.0811 51.7636 65.4743 51.8219C66.5517 51.982 67.4107 52.1931 68.0514 52.4552C68.692 52.7173 69.1725 53.0959 69.4928 53.5909C69.8131 54.0714 69.9733 54.7266 69.9733 55.5565C69.9733 55.8623 69.9515 56.1899 69.9078 56.5393C69.7622 57.7478 69.4419 58.7015 68.9468 59.4003C68.4663 60.0992 67.7675 60.6015 66.8502 60.9073C65.9329 61.2131 64.7463 61.3659 63.2903 61.3659H63.0063Z" fill="white"/>
<path id="Union" d="M78.1178 30.7036L57.1545 30.7036C55.1442 30.7036 53.5145 29.0739 53.5145 27.0636L53.5145 6.89209L78.1178 30.7036Z" fill="#FE672E"/>
</g>
<defs>
<linearGradient id="paint0_linear_24238_9959" x1="13.0001" y1="6.89252" x2="78.5201" y2="83.3325" gradientUnits="userSpaceOnUse">
<stop stop-color="#FF9E7A"/>
<stop offset="1" stop-color="#FF723D"/>
</linearGradient>
</defs>
</svg>
