<svg viewBox="0 0 90 90" width="90" height="90" fill="none" xmlns="http://www.w3.org/2000/svg" aria-hidden="true">
<g id="Group 3438">
<path id="Rectangle 252" d="M13.0001 10.5325C13.0001 8.5222 14.6298 6.89252 16.6401 6.89252H53.9078L78.5201 30.7106V79.6925C78.5201 81.7028 76.8904 83.3325 74.8801 83.3325H16.6401C14.6298 83.3325 13.0001 81.7028 13.0001 79.6925V10.5325Z" fill="url(#paint0_linear_24238_9959)"/>
<rect id="Rectangle 253" opacity="0.1" x="26.4478" y="36.6879" width="37.8277" height="3.64" rx="1.82" fill="white"/>
<rect id="Rectangle 254" opacity="0.1" x="26.4478" y="46.0794" width="37.8277" height="3.64" rx="1.82" fill="white"/>
<rect id="Rectangle 255" opacity="0.1" x="26.6948" y="55.47" width="37.8277" height="3.64" rx="1.82" fill="white"/>
<rect id="Rectangle 256" opacity="0.1" x="26.6948" y="64.8611" width="37.8277" height="3.64" rx="1.82" fill="white"/>
<path id="XLS" d="M27.7639 61.2786H24.5535L31.6296 52.8702L27.0214 44.8767H30.0571L33.4642 50.9483L38.2908 44.8767H41.4139L34.7527 53.0449L39.6449 61.2786H36.5655L32.94 54.9668L27.7639 61.2786ZM43.5925 44.8767H46.1696L44.4442 58.8762H52.9618L52.6779 61.2786H41.5832L43.5925 44.8767ZM59.0166 61.3659C57.1093 61.3659 55.5368 61.2713 54.2992 61.082L54.605 58.6359C56.3813 58.8543 57.9465 58.9635 59.3006 58.9635H59.5845C60.5018 58.9635 61.2225 58.8762 61.7466 58.7015C62.2854 58.5267 62.6712 58.2719 62.9042 57.9371C63.1371 57.6022 63.2827 57.1727 63.341 56.6485C63.3701 56.3864 63.3846 56.2044 63.3846 56.1025C63.3846 55.5929 63.2682 55.2071 63.0352 54.945C62.8022 54.6829 62.4528 54.5009 61.9869 54.399C61.5355 54.2825 60.8512 54.166 59.9339 54.0495C58.8856 53.9331 58.0557 53.7511 57.4442 53.5035C56.8326 53.256 56.374 52.8993 56.0682 52.4334C55.777 51.9529 55.6314 51.3123 55.6314 50.5115C55.6314 50.1911 55.6533 49.8344 55.697 49.4413C55.8862 47.796 56.4395 46.6239 57.3568 45.9251C58.2741 45.2262 59.6791 44.8767 61.5719 44.8767H63.1007C64.2073 44.8767 65.4303 44.8913 66.7698 44.9204L66.4859 47.3228C65.7142 47.3228 65.1246 47.3155 64.7169 47.301L62.8168 47.2791H61.288C60.2251 47.2791 59.4462 47.4684 58.9511 47.847C58.4706 48.211 58.2304 48.9099 58.2304 49.9436C58.2304 50.395 58.3178 50.7371 58.4925 50.9701C58.6672 51.1885 58.9074 51.3414 59.2132 51.4287C59.519 51.5161 60.014 51.6107 60.6983 51.7127C60.8294 51.7272 61.0914 51.7636 61.4846 51.8219C62.562 51.982 63.421 52.1931 64.0617 52.4552C64.7023 52.7173 65.1828 53.0959 65.5031 53.5909C65.8234 54.0714 65.9836 54.7266 65.9836 55.5565C65.9836 55.8623 65.9618 56.1899 65.9181 56.5393C65.7725 57.7478 65.4522 58.7015 64.9571 59.4003C64.4766 60.0992 63.7778 60.6015 62.8605 60.9073C61.9432 61.2131 60.7566 61.3659 59.3006 61.3659H59.0166Z" fill="white"/>
<path id="Union" d="M78.1178 30.7036L57.1545 30.7036C55.1442 30.7036 53.5145 29.0739 53.5145 27.0636L53.5145 6.89209L78.1178 30.7036Z" fill="#14AA73"/>
</g>
<defs>
<linearGradient id="paint0_linear_24238_9959" x1="13.0001" y1="6.89252" x2="78.5201" y2="83.3325" gradientUnits="userSpaceOnUse">
<stop stop-color="#2FC990"/>
<stop offset="1" stop-color="#11A84B"/>
</linearGradient>
</defs>
</svg>
