<svg viewBox="0 0 90 90" width="90" height="90" fill="none" xmlns="http://www.w3.org/2000/svg" aria-hidden="true">
<g id="Group 3438">
<path id="Rectangle 252" d="M13.0001 10.5325C13.0001 8.5222 14.6298 6.89252 16.6401 6.89252H53.9078L78.5201 30.7106V79.6925C78.5201 81.7028 76.8904 83.3325 74.8801 83.3325H16.6401C14.6298 83.3325 13.0001 81.7028 13.0001 79.6925V10.5325Z" fill="url(#paint0_linear_24238_9959)"/>
<rect id="Rectangle 253" opacity="0.1" x="26.4478" y="36.6879" width="37.8277" height="3.64" rx="1.82" fill="white"/>
<rect id="Rectangle 254" opacity="0.1" x="26.4478" y="46.0794" width="37.8277" height="3.64" rx="1.82" fill="white"/>
<rect id="Rectangle 255" opacity="0.1" x="26.6948" y="55.47" width="37.8277" height="3.64" rx="1.82" fill="white"/>
<rect id="Rectangle 256" opacity="0.1" x="26.6948" y="64.8611" width="37.8277" height="3.64" rx="1.82" fill="white"/>
<path id="XLSX" d="M21.6129 59.7199H18.6729L25.1529 52.0199L20.9329 44.6999H23.7129L26.8329 50.2599L31.2529 44.6999H34.1129L28.0129 52.1799L32.4929 59.7199H29.6729L26.3529 53.9399L21.6129 59.7199ZM36.1079 44.6999H38.4679L36.8879 57.5199H44.6879L44.4279 59.7199H34.2679L36.1079 44.6999ZM50.2326 59.7999C48.486 59.7999 47.046 59.7132 45.9126 59.5399L46.1926 57.2999C47.8193 57.4999 49.2526 57.5999 50.4926 57.5999H50.7526C51.5926 57.5999 52.2526 57.5199 52.7326 57.3599C53.226 57.1999 53.5793 56.9666 53.7926 56.6599C54.006 56.3532 54.1393 55.9599 54.1926 55.4799C54.2193 55.2399 54.2326 55.0732 54.2326 54.9799C54.2326 54.5132 54.126 54.1599 53.9126 53.9199C53.6993 53.6799 53.3793 53.5132 52.9526 53.4199C52.5393 53.3132 51.9126 53.2066 51.0726 53.0999C50.1126 52.9932 49.3526 52.8266 48.7926 52.5999C48.2326 52.3732 47.8126 52.0466 47.5326 51.6199C47.266 51.1799 47.1326 50.5932 47.1326 49.8599C47.1326 49.5666 47.1526 49.2399 47.1926 48.8799C47.366 47.3732 47.8726 46.2999 48.7126 45.6599C49.5526 45.0199 50.8393 44.6999 52.5726 44.6999H53.9726C54.986 44.6999 56.106 44.7132 57.3326 44.7399L57.0726 46.9399C56.366 46.9399 55.826 46.9332 55.4526 46.9199L53.7126 46.8999H52.3126C51.3393 46.8999 50.626 47.0732 50.1726 47.4199C49.7326 47.7532 49.5126 48.3932 49.5126 49.3399C49.5126 49.7532 49.5926 50.0666 49.7526 50.2799C49.9126 50.4799 50.1326 50.6199 50.4126 50.6999C50.6926 50.7799 51.146 50.8666 51.7726 50.9599C51.8926 50.9732 52.1326 51.0066 52.4926 51.0599C53.4793 51.2066 54.266 51.3999 54.8526 51.6399C55.4393 51.8799 55.8793 52.2266 56.1726 52.6799C56.466 53.1199 56.6126 53.7199 56.6126 54.4799C56.6126 54.7599 56.5926 55.0599 56.5526 55.3799C56.4193 56.4866 56.126 57.3599 55.6726 57.9999C55.2326 58.6399 54.5926 59.0999 53.7526 59.3799C52.9126 59.6599 51.826 59.7999 50.4926 59.7999H50.2326ZM59.9723 59.7199H57.0323L63.5123 52.0199L59.2923 44.6999H62.0723L65.1923 50.2599L69.6123 44.6999H72.4723L66.3723 52.1799L70.8523 59.7199H68.0323L64.7123 53.9399L59.9723 59.7199Z" fill="white"/>
<path id="Union" d="M78.1178 30.7036L57.1545 30.7036C55.1442 30.7036 53.5145 29.0739 53.5145 27.0636L53.5145 6.89209L78.1178 30.7036Z" fill="#14AA73"/>
</g>
<defs>
<linearGradient id="paint0_linear_24238_9959" x1="13.0001" y1="6.89252" x2="78.5201" y2="83.3325" gradientUnits="userSpaceOnUse">
<stop stop-color="#2FC990"/>
<stop offset="1" stop-color="#11A84B"/>
</linearGradient>
</defs>
</svg>
