<svg width="32" height="32" viewBox="0 0 32 32" fill="none" xmlns="http://www.w3.org/2000/svg">
<rect width="32" height="32" rx="5" fill="white"/>
<path d="M17.5834 11.9102C20.9607 11.9102 23.6986 14.6051 23.6986 17.9295C23.6986 21.15 21.1291 23.7798 17.8979 23.9409L17.5834 23.9487H10.1942C9.77207 23.9487 9.42984 23.6119 9.42984 23.1963C9.42984 22.7808 9.77207 22.4439 10.1942 22.4439H17.5834C20.1164 22.4439 22.1698 20.4227 22.1698 17.9295C22.1698 15.4362 20.1164 13.415 17.5834 13.415H10.1942C9.77207 13.415 9.42984 13.0781 9.42984 12.6626C9.42984 12.2471 9.77207 11.9102 10.1942 11.9102H17.5834Z" fill="#262626"/>
<path d="M7.9225 13.1341C7.62398 12.8403 7.62398 12.3639 7.9225 12.0701C8.22101 11.7762 8.705 11.7762 9.00352 12.0701L12.9673 15.9716C13.2658 16.2655 13.2658 16.7419 12.9673 17.0357C12.6688 17.3295 12.1848 17.3295 11.8862 17.0357L7.9225 13.1341Z" fill="#262626"/>
<path d="M9.00353 13.1348C8.70501 13.4286 8.22101 13.428 7.9225 13.1341C7.62398 12.8403 7.62398 12.3639 7.9225 12.0701L11.8863 8.16911C12.1848 7.87527 12.6688 7.87527 12.9673 8.16911C13.2658 8.46294 13.2658 8.93934 12.9673 9.23317L9.00353 13.1348Z" fill="#262626"/>
</svg>
