<svg width="32" height="32" viewBox="0 0 32 32" fill="none" xmlns="http://www.w3.org/2000/svg">
<rect width="32" height="32" rx="5.33333" fill="white"/>
<path d="M23.3334 14.7628L25.009 13.1624L26.3061 14.4005L22.4167 18.1122L18.5273 14.4005L19.8244 13.1624L21.5 14.7628V12.5C21.5 11.8038 21.2103 11.1361 20.6946 10.6438C20.1789 10.1516 19.4794 9.875 18.75 9.875H15.0834V8.125H18.75C19.3519 8.125 19.9479 8.23816 20.504 8.45803C21.0601 8.67789 21.5653 9.00015 21.9909 9.40641C22.4165 9.81266 22.7542 10.295 22.9845 10.8258C23.2148 11.3566 23.3334 11.9255 23.3334 12.5V14.7628ZM16.9167 13.375C17.1598 13.375 17.393 13.4672 17.5649 13.6313C17.7368 13.7954 17.8334 14.0179 17.8334 14.25V23C17.8334 23.2321 17.7368 23.4546 17.5649 23.6187C17.393 23.7828 17.1598 23.875 16.9167 23.875H7.75004C7.50693 23.875 7.27377 23.7828 7.10186 23.6187C6.92995 23.4546 6.83337 23.2321 6.83337 23V14.25C6.83337 14.1351 6.85708 14.0213 6.90315 13.9152C6.94922 13.809 7.01674 13.7125 7.10186 13.6313C7.18698 13.55 7.28803 13.4856 7.39925 13.4416C7.51046 13.3976 7.62966 13.375 7.75004 13.375H16.9167ZM16 15.125H8.66671V22.125H16V15.125Z" fill="black"/>
</svg>
