<svg width="16" height="16" viewBox="0 0 16 16" fill="none" xmlns="http://www.w3.org/2000/svg">
<path d="M12.0092 2.93015C12.3021 2.63729 12.7769 2.63726 13.0698 2.93015C13.3381 3.19852 13.3606 3.6196 13.1372 3.91354L13.0698 3.99069L9.06 7.99948L13.0698 12.0092C13.3626 12.3021 13.3626 12.7769 13.0698 13.0698C12.8014 13.3381 12.3803 13.3606 12.0864 13.1372L12.0092 13.0698L7.99945 9.06003L3.99067 13.0698C3.69778 13.3626 3.223 13.3626 2.93012 13.0698C2.66175 12.8014 2.63932 12.3803 2.86274 12.0864L2.93012 12.0092L6.93891 7.99948L2.93012 3.99069C2.63723 3.6978 2.63723 3.22304 2.93012 2.93015C3.1985 2.66177 3.61956 2.63931 3.91352 2.86276L3.99067 2.93015L7.99945 6.93893L12.0092 2.93015Z" fill="#BDBDBD"/>
</svg>
